<svg width="25" height="25" viewBox="0 0 25 25" fill="none" xmlns="http://www.w3.org/2000/svg">
<mask id="mask0_1516_245" style="mask-type:alpha" maskUnits="userSpaceOnUse" x="0" y="0" width="25" height="25">
<rect x="0.638428" y="0.749634" width="24" height="24" fill="#D9D9D9"/>
</mask>
<g mask="url(#mask0_1516_245)">
<path d="M7.13843 20.7496C5.62176 20.7496 4.32593 20.2246 3.25093 19.1746C2.17593 18.1246 1.63843 16.8413 1.63843 15.3246C1.63843 14.0246 2.03009 12.8663 2.81343 11.8496C3.59676 10.833 4.62176 10.183 5.88843 9.89963C6.30509 8.3663 7.13843 7.12463 8.38843 6.17463C9.63843 5.22463 11.0551 4.74963 12.6384 4.74963C14.5884 4.74963 16.2426 5.4288 17.6009 6.78713C18.9593 8.14547 19.6384 9.79963 19.6384 11.7496C20.7884 11.883 21.7426 12.3788 22.5009 13.2371C23.2593 14.0955 23.6384 15.0996 23.6384 16.2496C23.6384 17.4996 23.2009 18.5621 22.3259 19.4371C21.4509 20.3121 20.3884 20.7496 19.1384 20.7496H13.6384C13.0884 20.7496 12.6176 20.5538 12.2259 20.1621C11.8343 19.7705 11.6384 19.2996 11.6384 18.7496V13.5996L10.0384 15.1496L8.63843 13.7496L12.6384 9.74963L16.6384 13.7496L15.2384 15.1496L13.6384 13.5996V18.7496H19.1384C19.8384 18.7496 20.4301 18.508 20.9134 18.0246C21.3968 17.5413 21.6384 16.9496 21.6384 16.2496C21.6384 15.5496 21.3968 14.958 20.9134 14.4746C20.4301 13.9913 19.8384 13.7496 19.1384 13.7496H17.6384V11.7496C17.6384 10.3663 17.1509 9.18713 16.1759 8.21213C15.2009 7.23713 14.0218 6.74963 12.6384 6.74963C11.2551 6.74963 10.0759 7.23713 9.10093 8.21213C8.12593 9.18713 7.63843 10.3663 7.63843 11.7496H7.13843C6.17176 11.7496 5.34676 12.0913 4.66343 12.7746C3.98009 13.458 3.63843 14.283 3.63843 15.2496C3.63843 16.2163 3.98009 17.0413 4.66343 17.7246C5.34676 18.408 6.17176 18.7496 7.13843 18.7496H9.63843V20.7496H7.13843Z" fill="#1C1B1F"/>
</g>
</svg>
