<?xml version="1.0" encoding="UTF-8"?><svg id="Layer_1" xmlns="http://www.w3.org/2000/svg" viewBox="0 0 20 20"><defs><style>.cls-1{fill:#1c1b1f;}</style></defs><path class="cls-1" d="m5.53,16.35c-1.27,0-2.36-.44-3.26-1.32-.9-.88-1.35-1.96-1.35-3.23,0-1.09.33-2.06.99-2.91.66-.85,1.52-1.4,2.58-1.63.35-1.29,1.05-2.33,2.1-3.12,1.05-.8,2.24-1.19,3.56-1.19,1.63,0,3.02.57,4.16,1.71,1.14,1.14,1.71,2.53,1.71,4.16.96.11,1.76.53,2.4,1.25.64.72.95,1.56.95,2.53,0,1.05-.37,1.94-1.1,2.67-.73.73-1.62,1.1-2.67,1.1h-4.61c-.46,0-.86-.16-1.18-.49-.33-.33-.49-.72-.49-1.18v-4.32l-.75.73c-.33.32-.85.31-1.17,0-.33-.33-.33-.86,0-1.18l2.08-2.08c.38-.38.99-.38,1.37,0l2.08,2.08c.33.33.33.86,0,1.18-.32.32-.85.33-1.17,0l-.75-.73v4.32h4.61c.59,0,1.08-.2,1.49-.61.41-.41.61-.9.61-1.49s-.2-1.08-.61-1.49c-.41-.41-.9-.61-1.49-.61h-1.26v-1.68c0-1.16-.41-2.15-1.23-2.97-.82-.82-1.81-1.23-2.97-1.23s-2.15.41-2.97,1.23-1.23,1.81-1.23,2.97h-.42c-.81,0-1.5.29-2.08.86-.57.57-.86,1.26-.86,2.08s.29,1.5.86,2.08c.57.57,1.26.86,2.08.86h1.26c.46,0,.84.38.84.84s-.38.84-.84.84h-1.26Z"/></svg>