<svg width="20" height="15" viewBox="0 0 20 15" fill="none" xmlns="http://www.w3.org/2000/svg">
<path d="M5.64896 14.5445C4.33911 14.5445 3.21998 14.0911 2.29157 13.1843C1.36316 12.2775 0.898956 11.1691 0.898956 9.85927C0.898956 8.73655 1.23721 7.73617 1.91373 6.85814C2.59024 5.98011 3.47547 5.41874 4.56941 5.17405C4.92926 3.8498 5.64896 2.77745 6.7285 1.957C7.80805 1.13655 9.03153 0.726318 10.399 0.726318C12.083 0.726318 13.5116 1.31287 14.6848 2.48598C15.8579 3.65908 16.4444 5.08768 16.4444 6.77177C17.4376 6.88692 18.2616 7.31514 18.9166 8.05643C19.5715 8.79772 19.899 9.66495 19.899 10.6581C19.899 11.7377 19.5211 12.6553 18.7654 13.411C18.0098 14.1667 17.0921 14.5445 16.0126 14.5445H11.2626C10.7876 14.5445 10.381 14.3754 10.0427 14.0371C9.70445 13.6989 9.53532 13.2922 9.53532 12.8172V8.3695L8.76269 9.11798C8.42469 9.44542 7.88651 9.44115 7.55375 9.10839V9.10839C7.21722 8.77186 7.21722 8.22623 7.55375 7.8897L9.69185 5.75161C10.0824 5.36108 10.7155 5.36108 11.1061 5.75161L13.2442 7.8897C13.5807 8.22623 13.5807 8.77186 13.2442 9.10839V9.10839C12.9114 9.44115 12.3732 9.44542 12.0352 9.11798L11.2626 8.3695V12.8172H16.0126C16.6171 12.8172 17.1281 12.6085 17.5455 12.1911C17.963 11.7737 18.1717 11.2627 18.1717 10.6581C18.1717 10.0536 17.963 9.54261 17.5455 9.12518C17.1281 8.70776 16.6171 8.49905 16.0126 8.49905H14.7171V6.77177C14.7171 5.57708 14.2961 4.5587 13.4541 3.71666C12.612 2.87461 11.5937 2.45359 10.399 2.45359C9.20426 2.45359 8.18589 2.87461 7.34384 3.71666C6.5018 4.5587 6.08077 5.57708 6.08077 6.77177H5.64896C4.81411 6.77177 4.10161 7.06685 3.51146 7.657C2.9213 8.24715 2.62623 8.95965 2.62623 9.7945C2.62623 10.6293 2.9213 11.3418 3.51146 11.932C4.10161 12.5222 4.81411 12.8172 5.64896 12.8172H6.94441C7.42138 12.8172 7.80805 13.2039 7.80805 13.6809V13.6809C7.80805 14.1578 7.42138 14.5445 6.94441 14.5445H5.64896Z" fill="#1C1B1F"/>
</svg>
