<svg width="19" height="19" viewBox="0 0 19 19" fill="none" xmlns="http://www.w3.org/2000/svg">
<path fill-rule="evenodd" clip-rule="evenodd" d="M10.3791 2.50254C8.60349 2.25857 6.80075 2.68559 5.32329 3.70012C3.84583 4.71466 2.79987 6.24375 2.38989 7.98848C1.9799 9.73321 2.23538 11.5681 3.10636 13.1345C3.97735 14.7009 5.40123 15.8861 7.09963 16.4585C8.79803 17.0308 10.6488 16.9492 12.2902 16.2295C13.4873 15.7046 14.5102 14.8679 15.2593 13.8184H9.47449C8.97744 13.8184 8.57449 13.4155 8.57449 12.9184C8.57449 12.4214 8.97744 12.0184 9.47449 12.0184H16.7645C16.9038 12.0184 17.0358 12.0501 17.1536 12.1066C17.1569 12.1081 17.1603 12.1096 17.1637 12.1111C17.6177 12.3134 17.8217 12.8455 17.6193 13.2995C16.7073 15.3458 15.0648 16.9783 13.0131 17.8779C10.9613 18.7776 8.6478 18.8797 6.5248 18.1642C4.4018 17.4488 2.62195 15.9672 1.53321 14.0093C0.444477 12.0513 0.125135 9.75764 0.637615 7.57673C1.15009 5.39581 2.45755 3.48444 4.30438 2.21628C6.1512 0.948112 8.40462 0.414335 10.6241 0.719299C12.8435 1.02426 14.8695 2.14604 16.3058 3.86533C17.7421 5.58461 18.4856 7.77779 18.3909 10.0161C18.3699 10.5127 17.9502 10.8983 17.4536 10.8772C16.957 10.8562 16.5715 10.4366 16.5925 9.93998C16.6683 8.14933 16.0735 6.39479 14.9244 5.01936C13.7754 3.64393 12.1546 2.74651 10.3791 2.50254ZM9.22535 9.46179L6.79536 11.8918C6.44389 12.2433 5.87404 12.2433 5.52257 11.8918C5.17109 11.5403 5.17109 10.9705 5.52257 10.619L7.31616 8.8254L5.52257 7.0318C5.17109 6.68033 5.17109 6.11048 5.52257 5.75901C5.87404 5.40754 6.44389 5.40754 6.79536 5.75901L9.22535 8.189C9.57682 8.54047 9.57682 9.11032 9.22535 9.46179Z" fill="black"/>
</svg>
