<svg width="16" height="20" viewBox="0 0 16 20" fill="none" xmlns="http://www.w3.org/2000/svg">
<path d="M7.21762 15.7534H9.09262V12.9409H11.9051V11.0659H9.09262V8.25342H7.21762V11.0659H4.40512V12.9409H7.21762V15.7534ZM2.53012 19.5034C2.0145 19.5034 1.57309 19.3198 1.2059 18.9526C0.838715 18.5854 0.655121 18.144 0.655121 17.6284V2.62842C0.655121 2.11279 0.838715 1.67139 1.2059 1.3042C1.57309 0.937012 2.0145 0.753418 2.53012 0.753418H10.0301L15.6551 6.37842V17.6284C15.6551 18.144 15.4715 18.5854 15.1043 18.9526C14.7372 19.3198 14.2957 19.5034 13.7801 19.5034H2.53012ZM9.09262 7.31592V2.62842H2.53012V17.6284H13.7801V7.31592H9.09262Z" fill="#1C1B1F"/>
</svg>
