<svg width="19" height="16" viewBox="0 0 19 16" fill="none" xmlns="http://www.w3.org/2000/svg">
<path d="M11.4551 11.7285H13.2551V9.92847H15.0551V8.12847H13.2551V6.32847H11.4551V8.12847H9.65512V9.92847H11.4551V11.7285ZM2.45512 15.3285C1.96012 15.3285 1.53637 15.1522 1.18387 14.7997C0.831371 14.4472 0.655121 14.0235 0.655121 13.5285V2.72847C0.655121 2.23347 0.831371 1.80972 1.18387 1.45722C1.53637 1.10472 1.96012 0.928467 2.45512 0.928467H7.85512L9.65512 2.72847H16.8551C17.3501 2.72847 17.7739 2.90472 18.1264 3.25722C18.4789 3.60972 18.6551 4.03347 18.6551 4.52847V13.5285C18.6551 14.0235 18.4789 14.4472 18.1264 14.7997C17.7739 15.1522 17.3501 15.3285 16.8551 15.3285H2.45512ZM2.45512 13.5285H16.8551V4.52847H8.91262L7.11262 2.72847H2.45512V13.5285Z" fill="#1C1B1F"/>
</svg>
