<?xml version="1.0" encoding="UTF-8"?><svg id="Layer_1" xmlns="http://www.w3.org/2000/svg" viewBox="0 0 20 20"><defs><style>.cls-1{fill:#000;stroke-width:0px;}</style></defs><path class="cls-1" d="M7.5,16.67c-.46,0-.85-.16-1.18-.49-.33-.33-.49-.72-.49-1.18s.16-.85.49-1.18c.33-.33.72-.49,1.18-.49s.85.16,1.18.49c.33.33.49.72.49,1.18s-.16.85-.49,1.18c-.33.33-.72.49-1.18.49ZM12.5,16.67c-.46,0-.85-.16-1.18-.49-.33-.33-.49-.72-.49-1.18s.16-.85.49-1.18c.33-.33.72-.49,1.18-.49s.85.16,1.18.49c.33.33.49.72.49,1.18s-.16.85-.49,1.18c-.33.33-.72.49-1.18.49ZM7.5,11.67c-.46,0-.85-.16-1.18-.49-.33-.33-.49-.72-.49-1.18s.16-.85.49-1.18c.33-.33.72-.49,1.18-.49s.85.16,1.18.49c.33.33.49.72.49,1.18s-.16.85-.49,1.18c-.33.33-.72.49-1.18.49ZM12.5,11.67c-.46,0-.85-.16-1.18-.49-.33-.33-.49-.72-.49-1.18s.16-.85.49-1.18c.33-.33.72-.49,1.18-.49s.85.16,1.18.49c.33.33.49.72.49,1.18s-.16.85-.49,1.18-.72.49-1.18.49ZM7.5,6.67c-.46,0-.85-.16-1.18-.49-.33-.33-.49-.72-.49-1.18s.16-.85.49-1.18c.33-.33.72-.49,1.18-.49s.85.16,1.18.49c.33.33.49.72.49,1.18s-.16.85-.49,1.18c-.33.33-.72.49-1.18.49ZM12.5,6.67c-.46,0-.85-.16-1.18-.49-.33-.33-.49-.72-.49-1.18s.16-.85.49-1.18c.33-.33.72-.49,1.18-.49s.85.16,1.18.49c.33.33.49.72.49,1.18s-.16.85-.49,1.18c-.33.33-.72.49-1.18.49Z"/></svg>
