<?xml version="1.0" encoding="UTF-8"?><svg id="Layer_1" xmlns="http://www.w3.org/2000/svg" viewBox="0 0 20 20"><defs><style>.cls-1{fill:#1c1b1f;}</style></defs><path class="cls-1" d="m17.76,12.97v3.2c0,.46-.17.86-.5,1.19-.33.33-.73.5-1.19.5h-3.2c0-.67-.21-1.26-.64-1.77-.43-.51-.97-.76-1.63-.76s-1.21.25-1.63.76c-.43.51-.64,1.1-.64,1.77h-3.2c-.46,0-.86-.17-1.19-.5-.33-.33-.5-.73-.5-1.19v-3.37c-.59,0-1.09-.2-1.5-.61-.41-.41-.61-.91-.61-1.5s.2-1.09.61-1.5c.41-.41.91-.61,1.5-.61v-3.37c0-.46.17-.86.5-1.19s.73-.5,1.19-.5h3.37c0-.59.2-1.09.61-1.5.41-.41.91-.61,1.5-.61s1.09.2,1.5.61c.41.41.61.91.61,1.5h3.37c.46,0,.86.17,1.19.5.33.33.5.73.5,1.19v3.2c-.7,0-1.3.22-1.79.66-.49.44-.74.98-.74,1.61s.25,1.17.74,1.61c.49.44,1.09.66,1.79.66Zm-1.69,3.2v-1.79c-.93-.34-1.58-.88-1.96-1.62-.38-.74-.57-1.43-.57-2.07s.19-1.32.57-2.07c.38-.74,1.03-1.29,1.96-1.62v-1.79h-5.06v-1.69c0-.11-.04-.21-.13-.3-.08-.08-.18-.13-.3-.13s-.21.04-.3.13c-.08.08-.13.18-.13.3v1.69h-5.06v5.06h-1.69c-.11,0-.21.04-.3.13-.08.08-.13.18-.13.3s.04.21.13.3c.08.08.18.13.3.13h1.69v5.06h1.86c.28-.76.75-1.37,1.41-1.83.66-.46,1.4-.7,2.21-.7s1.53.23,2.19.7c.66.46,1.14,1.08,1.43,1.83h1.86Z"/></svg>