<svg width="25" height="25" viewBox="0 0 25 25" fill="none" xmlns="http://www.w3.org/2000/svg">
<mask id="mask0_1471_318" style="mask-type:alpha" maskUnits="userSpaceOnUse" x="0" y="0" width="25" height="25">
<rect x="0.586914" y="24.2974" width="24" height="24" transform="rotate(-90 0.586914 24.2974)" fill="#D9D9D9"/>
</mask>
<g mask="url(#mask0_1471_318)">
<path d="M21.5869 15.4974L21.5869 19.2974C21.5869 19.8474 21.3911 20.3182 20.9994 20.7099C20.6077 21.1015 20.1369 21.2974 19.5869 21.2974L15.7869 21.2974C15.7869 20.4974 15.5327 19.7974 15.0244 19.1974C14.5161 18.5974 13.8702 18.2974 13.0869 18.2974C12.3036 18.2974 11.6577 18.5974 11.1494 19.1974C10.6411 19.7974 10.3869 20.4974 10.3869 21.2974L6.58691 21.2974C6.03691 21.2974 5.56608 21.1015 5.17441 20.7099C4.78275 20.3182 4.58691 19.8474 4.58691 19.2974L4.58691 15.2974C3.88691 15.2974 3.29525 15.0557 2.81191 14.5724C2.32858 14.089 2.08691 13.4974 2.08691 12.7974C2.08691 12.0974 2.32858 11.5057 2.81191 11.0224C3.29525 10.539 3.88691 10.2974 4.58691 10.2974L4.58691 6.29736C4.58691 5.74736 4.78275 5.27653 5.17441 4.88486C5.56608 4.4932 6.03691 4.29736 6.58691 4.29736L10.5869 4.29736C10.5869 3.59736 10.8286 3.0057 11.3119 2.52236C11.7952 2.03903 12.3869 1.79736 13.0869 1.79736C13.7869 1.79736 14.3786 2.03903 14.8619 2.52236C15.3452 3.0057 15.5869 3.59736 15.5869 4.29736L19.5869 4.29736C20.1369 4.29736 20.6077 4.4932 20.9994 4.88486C21.3911 5.27653 21.5869 5.74736 21.5869 6.29736L21.5869 10.0974C20.7536 10.0974 20.0452 10.3599 19.4619 10.8849C18.8786 11.4099 18.5869 12.0474 18.5869 12.7974C18.5869 13.5474 18.8786 14.1849 19.4619 14.7099C20.0452 15.2349 20.7536 15.4974 21.5869 15.4974ZM19.5869 19.2974L19.5869 17.1724C18.4869 16.7724 17.7119 16.1307 17.2619 15.2474C16.8119 14.364 16.5869 13.5474 16.5869 12.7974C16.5869 12.0474 16.8119 11.2307 17.2619 10.3474C17.7119 9.46403 18.4869 8.82236 19.5869 8.42236L19.5869 6.29736L13.5869 6.29736L13.5869 4.29736C13.5869 4.16403 13.5369 4.04736 13.4369 3.94736C13.3369 3.84736 13.2202 3.79736 13.0869 3.79736C12.9536 3.79736 12.8369 3.84736 12.7369 3.94736C12.6369 4.04736 12.5869 4.16403 12.5869 4.29736L12.5869 6.29736L6.58691 6.29736L6.58691 12.2974L4.58691 12.2974C4.45358 12.2974 4.33691 12.3474 4.23691 12.4474C4.13691 12.5474 4.08691 12.664 4.08691 12.7974C4.08691 12.9307 4.13691 13.0474 4.23691 13.1474C4.33691 13.2474 4.45358 13.2974 4.58691 13.2974L6.58691 13.2974L6.58691 19.2974L8.78691 19.2974C9.12025 18.3974 9.67858 17.6724 10.4619 17.1224C11.2452 16.5724 12.1202 16.2974 13.0869 16.2974C14.0369 16.2974 14.9036 16.5724 15.6869 17.1224C16.4702 17.6724 17.0369 18.3974 17.3869 19.2974L19.5869 19.2974Z" fill="#1C1B1F"/>
</g>
</svg>
