<svg width="19" height="19" viewBox="0 0 19 19" fill="none" xmlns="http://www.w3.org/2000/svg">
<path d="M18.9523 12.8815L18.9523 16.3892C18.9523 16.8969 18.7715 17.3315 18.41 17.693C18.0484 18.0546 17.6138 18.2354 17.1061 18.2354L13.5984 18.2354C13.5984 17.4969 13.3638 16.8507 12.8946 16.2969C12.4253 15.743 11.8292 15.4661 11.1061 15.4661C10.383 15.4661 9.78689 15.743 9.31766 16.2969C8.84842 16.8507 8.61381 17.4969 8.61381 18.2354L5.10612 18.2354C4.59842 18.2354 4.16381 18.0546 3.80227 17.693C3.44073 17.3315 3.25996 16.8969 3.25996 16.3892L3.25996 12.6969C2.61381 12.6969 2.06765 12.4738 1.6215 12.0277C1.17535 11.5815 0.95227 11.0354 0.95227 10.3892C0.95227 9.74304 1.17535 9.19689 1.6215 8.75074C2.06765 8.30458 2.61381 8.08151 3.25996 8.08151L3.25996 4.3892C3.25996 3.88151 3.44073 3.44689 3.80227 3.08535C4.16381 2.72381 4.59842 2.54304 5.10612 2.54304L8.79842 2.54304C8.79842 1.89689 9.0215 1.35074 9.46765 0.904582C9.91381 0.458428 10.46 0.235351 11.1061 0.235351C11.7523 0.235351 12.2984 0.458428 12.7446 0.904582C13.1907 1.35074 13.4138 1.89689 13.4138 2.54304L17.1061 2.54304C17.6138 2.54304 18.0484 2.72381 18.41 3.08535C18.7715 3.44689 18.9523 3.8815 18.9523 4.3892L18.9523 7.89689C18.183 7.89689 17.5292 8.1392 16.9907 8.62381C16.4523 9.10843 16.183 9.69689 16.183 10.3892C16.183 11.0815 16.4523 11.67 16.9907 12.1546C17.5292 12.6392 18.183 12.8815 18.9523 12.8815ZM17.1061 16.3892L17.1061 14.4277C16.0907 14.0584 15.3753 13.4661 14.96 12.6507C14.5446 11.8354 14.3369 11.0815 14.3369 10.3892C14.3369 9.69689 14.5446 8.94304 14.96 8.12766C15.3753 7.31227 16.0907 6.71997 17.1061 6.35074L17.1061 4.3892L11.5677 4.3892L11.5677 2.54304C11.5677 2.41997 11.5215 2.31227 11.4292 2.21997C11.3369 2.12766 11.2292 2.0815 11.1061 2.0815C10.983 2.0815 10.8753 2.12766 10.783 2.21997C10.6907 2.31227 10.6446 2.41997 10.6446 2.54304L10.6446 4.3892L5.10612 4.3892L5.10612 9.92766L3.25996 9.92766C3.13689 9.92766 3.02919 9.97381 2.93689 10.0661C2.84458 10.1584 2.79842 10.2661 2.79842 10.3892C2.79842 10.5123 2.84458 10.62 2.93689 10.7123C3.02919 10.8046 3.13689 10.8507 3.25996 10.8507L5.10612 10.8507L5.10612 16.3892L7.13689 16.3892C7.44458 15.5584 7.95996 14.8892 8.68304 14.3815C9.40612 13.8738 10.2138 13.62 11.1061 13.62C11.983 13.62 12.783 13.8738 13.5061 14.3815C14.2292 14.8892 14.7523 15.5584 15.0753 16.3892L17.1061 16.3892Z" fill="#1C1B1F"/>
</svg>
