<svg width="21" height="16" viewBox="0 0 21 16" fill="none" xmlns="http://www.w3.org/2000/svg">
<mask id="path-1-inside-1_1598_262" fill="white">
<path d="M2.01559 15.7658C1.50396 15.7658 1.06597 15.5836 0.701633 15.2193C0.337291 14.8549 0.155121 14.417 0.155121 13.9053V2.74255C0.155121 2.23092 0.337291 1.79293 0.701633 1.42859C1.06597 1.06425 1.50396 0.88208 2.01559 0.88208H7.59698L9.45745 2.74255H16.8993C17.4109 2.74255 17.8489 2.92472 18.2133 3.28906C18.5776 3.6534 18.7598 4.09138 18.7598 4.60301H8.69L6.82954 2.74255H2.01559V13.9053L4.24814 6.46348H20.1551L17.7598 14.4402C17.6357 14.8433 17.4071 15.165 17.0737 15.4053C16.7404 15.6456 16.3722 15.7658 15.9691 15.7658H2.01559ZM3.96907 13.9053H15.9691L17.6435 8.32394H5.64349L3.96907 13.9053Z"/>
</mask>
<path d="M2.01559 15.7658C1.50396 15.7658 1.06597 15.5836 0.701633 15.2193C0.337291 14.8549 0.155121 14.417 0.155121 13.9053V2.74255C0.155121 2.23092 0.337291 1.79293 0.701633 1.42859C1.06597 1.06425 1.50396 0.88208 2.01559 0.88208H7.59698L9.45745 2.74255H16.8993C17.4109 2.74255 17.8489 2.92472 18.2133 3.28906C18.5776 3.6534 18.7598 4.09138 18.7598 4.60301H8.69L6.82954 2.74255H2.01559V13.9053L4.24814 6.46348H20.1551L17.7598 14.4402C17.6357 14.8433 17.4071 15.165 17.0737 15.4053C16.7404 15.6456 16.3722 15.7658 15.9691 15.7658H2.01559ZM3.96907 13.9053H15.9691L17.6435 8.32394H5.64349L3.96907 13.9053Z" fill="#211F27"/>
<path d="M4.01559 4.60301V2.74255H0.015586V4.60301H4.01559ZM7.59698 0.88208L10.4254 -1.94635L9.25384 -3.11792H7.59698V0.88208ZM9.45745 2.74255L6.62902 5.57097L7.80059 6.74255H9.45745V2.74255ZM18.7598 4.60301V8.60301H22.7598V4.60301H18.7598ZM8.69 4.60301L5.86158 7.43144L7.03315 8.60301H8.69V4.60301ZM6.82954 2.74255L9.65797 -0.0858819L8.48639 -1.25745H6.82954V2.74255ZM2.01559 2.74255V-1.25745H-1.98441V2.74255H2.01559ZM2.01559 13.9053H-1.98441L5.84689 15.0547L2.01559 13.9053ZM4.24814 6.46348V2.46348H1.27202L0.416839 5.31408L4.24814 6.46348ZM20.1551 6.46348L23.9861 7.61389L25.5327 2.46348H20.1551V6.46348ZM17.7598 14.4402L21.5829 15.6166L21.5869 15.6036L21.5908 15.5906L17.7598 14.4402ZM3.96907 13.9053L0.137769 12.7559L-1.40705 17.9053H3.96907V13.9053ZM15.9691 13.9053V17.9053H18.9452L19.8004 15.0547L15.9691 13.9053ZM17.6435 8.32394L21.4748 9.47333L23.0196 4.32394H17.6435V8.32394ZM5.64349 8.32394V4.32394H2.66737L1.81219 7.17455L5.64349 8.32394ZM2.01559 11.7658C2.24521 11.7658 2.5345 11.809 2.83952 11.9359C3.14397 12.0625 3.37432 12.2351 3.53006 12.3909L-2.12679 18.0477C-1.01829 19.1562 0.434661 19.7658 2.01559 19.7658V11.7658ZM3.53006 12.3909C3.6858 12.5466 3.85839 12.777 3.98502 13.0814C4.11189 13.3864 4.15512 13.6757 4.15512 13.9053H-3.84488C-3.84488 15.4863 -3.2353 16.9392 -2.12679 18.0477L3.53006 12.3909ZM4.15512 13.9053V2.74255H-3.84488V13.9053H4.15512ZM4.15512 2.74255C4.15512 2.97217 4.11189 3.26146 3.98502 3.56648C3.85839 3.87093 3.6858 4.10128 3.53006 4.25702L-2.12679 -1.39984C-3.2353 -0.291333 -3.84488 1.16162 -3.84488 2.74255H4.15512ZM3.53006 4.25702C3.37432 4.41276 3.14397 4.58535 2.83952 4.71198C2.5345 4.83885 2.24521 4.88208 2.01559 4.88208V-3.11792C0.434658 -3.11792 -1.01829 -2.50834 -2.12679 -1.39984L3.53006 4.25702ZM2.01559 4.88208H7.59698V-3.11792H2.01559V4.88208ZM4.76855 3.71051L6.62902 5.57097L12.2859 -0.0858819L10.4254 -1.94635L4.76855 3.71051ZM9.45745 6.74255H16.8993V-1.25745H9.45745V6.74255ZM16.8993 6.74255C16.6697 6.74255 16.3804 6.69931 16.0754 6.57245C15.7709 6.44582 15.5406 6.27322 15.3848 6.11748L21.0417 0.46063C19.9332 -0.647873 18.4802 -1.25745 16.8993 -1.25745V6.74255ZM15.3848 6.11748C15.2291 5.96175 15.0565 5.7314 14.9299 5.42694C14.803 5.12192 14.7598 4.83263 14.7598 4.60301H22.7598C22.7598 3.02208 22.1502 1.56913 21.0417 0.46063L15.3848 6.11748ZM18.7598 0.60301H8.69V8.60301H18.7598V0.60301ZM11.5184 1.77458L9.65797 -0.0858819L4.00111 5.57097L5.86158 7.43144L11.5184 1.77458ZM6.82954 -1.25745H2.01559V6.74255H6.82954V-1.25745ZM-1.98441 2.74255V13.9053H6.01559V2.74255H-1.98441ZM5.84689 15.0547L8.07945 7.61287L0.416839 5.31408L-1.81572 12.7559L5.84689 15.0547ZM4.24814 10.4635H20.1551V2.46348H4.24814V10.4635ZM16.3241 5.31306L13.9288 13.2898L21.5908 15.5906L23.9861 7.61389L16.3241 5.31306ZM13.9367 13.2639C13.9916 13.0854 14.0856 12.8765 14.235 12.6663C14.3851 12.4551 14.5602 12.2863 14.7345 12.1606L19.4129 18.65C20.4727 17.886 21.2099 16.8287 21.5829 15.6166L13.9367 13.2639ZM14.7345 12.1606C14.8825 12.054 15.0748 11.9487 15.3067 11.873C15.5394 11.7971 15.7665 11.7658 15.9691 11.7658V19.7658C17.2292 19.7658 18.4126 19.3712 19.4129 18.65L14.7345 12.1606ZM15.9691 11.7658H2.01559V19.7658H15.9691V11.7658ZM3.96907 17.9053H15.9691V9.90534H3.96907V17.9053ZM19.8004 15.0547L21.4748 9.47333L13.8122 7.17455L12.1378 12.7559L19.8004 15.0547ZM17.6435 4.32394H5.64349V12.3239H17.6435V4.32394ZM1.81219 7.17455L0.137769 12.7559L7.80038 15.0547L9.4748 9.47333L1.81219 7.17455Z" fill="#211F27" mask="url(#path-1-inside-1_1598_262)"/>
</svg>
