<?xml version="1.0" encoding="UTF-8"?><svg id="Layer_1" xmlns="http://www.w3.org/2000/svg" viewBox="0 0 20 20"><defs><style>.cls-1{fill:#211f27;}</style></defs><path class="cls-1" d="m5.5,8.41l-1.91,6.35V5.24h4.11l1.59,1.59h8.59c0-.44-.16-.81-.47-1.12-.31-.31-.68-.47-1.12-.47h-6.35l-1.59-1.59H3.59c-.44,0-.81.16-1.12.47-.31.31-.47.68-.47,1.12v9.53c0,.44.16.81.47,1.12.31.31.68.47,1.12.47h11.91c.34,0,.66-.1.94-.31.28-.21.48-.48.59-.82l2.04-6.81H5.5Zm10,6.35H5.26l1.43-4.76h10.24l-1.43,4.76Z"/></svg>