<svg width="22" height="17" viewBox="0 0 22 17" fill="none" xmlns="http://www.w3.org/2000/svg">
<path d="M2.15512 16.2244C1.60512 16.2244 1.13429 16.0285 0.742621 15.6369C0.350954 15.2452 0.155121 14.7744 0.155121 14.2244V2.22437C0.155121 1.67437 0.350954 1.20353 0.742621 0.811865C1.13429 0.420199 1.60512 0.224365 2.15512 0.224365H8.15512L10.1551 2.22437H18.1551C18.7051 2.22437 19.176 2.4202 19.5676 2.81187C19.9593 3.20353 20.1551 3.67437 20.1551 4.22437H9.33012L7.33012 2.22437H2.15512V14.2244L4.55512 6.22437H21.6551L19.0801 14.7994C18.9468 15.2327 18.701 15.5785 18.3426 15.8369C17.9843 16.0952 17.5885 16.2244 17.1551 16.2244H2.15512ZM4.25512 14.2244H17.1551L18.9551 8.22437H6.05512L4.25512 14.2244Z" fill="#211F27"/>
</svg>