<svg width="20" height="16" viewBox="0 0 20 16" fill="none" xmlns="http://www.w3.org/2000/svg">
<path d="M10.1463 1.94424L10.1426 1.9479H10.1551H17.7551C18.2743 1.9479 18.7184 2.13261 19.0882 2.50236C19.4579 2.87212 19.6426 3.31624 19.6426 3.8354V13.3354C19.6426 13.8546 19.4579 14.2987 19.0882 14.6684C18.7184 15.0382 18.2743 15.2229 17.7551 15.2229H2.55512C2.03596 15.2229 1.59184 15.0382 1.22208 14.6684C0.852327 14.2987 0.667621 13.8546 0.667621 13.3354V1.9354C0.667621 1.41624 0.852327 0.972122 1.22208 0.602364C1.59184 0.232606 2.03596 0.0479004 2.55512 0.0479004H8.24994L10.1463 1.94424ZM2.54262 13.3354V13.3479H2.55512H17.7551H17.7676V13.3354V3.8354V3.8229H17.7551H9.37655L7.48021 1.92656L7.48387 1.9229H7.47137H2.55512H2.54262V1.9354V13.3354Z" fill="#211F27" stroke="#211F27" stroke-width="0.025"/>
</svg>
