<svg width="25" height="25" viewBox="0 0 25 25" fill="none" xmlns="http://www.w3.org/2000/svg">
<mask id="mask0_1471_292" style="mask-type:alpha" maskUnits="userSpaceOnUse" x="0" y="0" width="25" height="25">
<rect x="1.06128" y="0.797363" width="23" height="23" fill="#D9D9D9" stroke="#211F27"/>
</mask>
<g mask="url(#mask0_1471_292)">
<path d="M12.5524 6.3062L12.5488 6.30986H12.5613H20.5613C21.1079 6.30986 21.5756 6.50436 21.9649 6.8937C22.3543 7.28304 22.5488 7.75071 22.5488 8.29736V18.2974C22.5488 18.844 22.3543 19.3117 21.9649 19.701C21.5756 20.0904 21.1079 20.2849 20.5613 20.2849H4.56128C4.01462 20.2849 3.54696 20.0904 3.15762 19.701C2.76828 19.3117 2.57378 18.844 2.57378 18.2974V6.29736C2.57378 5.7507 2.76828 5.28304 3.15762 4.8937C3.54696 4.50436 4.01462 4.30986 4.56128 4.30986H10.5561L12.5524 6.3062ZM4.54878 18.2974V18.3099H4.56128H20.5613H20.5738V18.2974V8.29736V8.28486H20.5613H11.7415L9.74512 6.28852L9.74878 6.28486H9.73628H4.56128H4.54878V6.29736V18.2974Z" fill="#211F27" stroke="#211F27" stroke-width="0.025"/>
</g>
</svg>
