<svg width="24" height="24" viewBox="0 0 24 24" fill="none" xmlns="http://www.w3.org/2000/svg">
<mask id="mask0_1471_929" style="mask-type:alpha" maskUnits="userSpaceOnUse" x="0" y="0" width="24" height="25">
<rect x="0.5" y="0.505127" width="23" height="23" fill="#D9D9D9" stroke="#211F27"/>
</mask>
<g mask="url(#mask0_1471_929)">
<mask id="path-2-inside-1_1471_929" fill="white">
<path d="M3.99994 20.0052C3.44994 20.0052 2.97911 19.8094 2.58744 19.4177C2.19577 19.026 1.99994 18.5552 1.99994 18.0052V6.00519C1.99994 5.45519 2.19577 4.98435 2.58744 4.59269C2.97911 4.20102 3.44994 4.00519 3.99994 4.00519H9.99994L11.9999 6.00519H19.9999C20.5499 6.00519 21.0208 6.20102 21.4124 6.59269C21.8041 6.98435 21.9999 7.45519 21.9999 8.00519H11.1749L9.17494 6.00519H3.99994V18.0052L6.39994 10.0052H23.4999L20.9249 18.5802C20.7916 19.0135 20.5458 19.3594 20.1874 19.6177C19.8291 19.876 19.4333 20.0052 18.9999 20.0052H3.99994ZM6.09994 18.0052H18.9999L20.7999 12.0052H7.89994L6.09994 18.0052Z"/>
</mask>
<path d="M3.99994 20.0052C3.44994 20.0052 2.97911 19.8094 2.58744 19.4177C2.19577 19.026 1.99994 18.5552 1.99994 18.0052V6.00519C1.99994 5.45519 2.19577 4.98435 2.58744 4.59269C2.97911 4.20102 3.44994 4.00519 3.99994 4.00519H9.99994L11.9999 6.00519H19.9999C20.5499 6.00519 21.0208 6.20102 21.4124 6.59269C21.8041 6.98435 21.9999 7.45519 21.9999 8.00519H11.1749L9.17494 6.00519H3.99994V18.0052L6.39994 10.0052H23.4999L20.9249 18.5802C20.7916 19.0135 20.5458 19.3594 20.1874 19.6177C19.8291 19.876 19.4333 20.0052 18.9999 20.0052H3.99994ZM6.09994 18.0052H18.9999L20.7999 12.0052H7.89994L6.09994 18.0052Z" fill="#211F27"/>
<path d="M5.99994 8.00519V6.00519H1.99994V8.00519H5.99994ZM9.99994 4.00519L12.8284 1.17676L11.6568 0.00518799H9.99994V4.00519ZM11.9999 6.00519L9.17151 8.83362L10.3431 10.0052H11.9999V6.00519ZM21.9999 8.00519V12.0052H25.9999V8.00519H21.9999ZM11.1749 8.00519L8.34651 10.8336L9.51809 12.0052H11.1749V8.00519ZM9.17494 6.00519L12.0034 3.17676L10.8318 2.00519H9.17494V6.00519ZM3.99994 6.00519V2.00519H-6.10352e-05V6.00519H3.99994ZM3.99994 18.0052H-6.10352e-05L7.83124 19.1546L3.99994 18.0052ZM6.39994 10.0052V6.00519H3.42382L2.56863 8.8558L6.39994 10.0052ZM23.4999 10.0052L27.3309 11.1556L28.8776 6.00519H23.4999V10.0052ZM20.9249 18.5802L24.7481 19.7565L24.752 19.7436L24.7559 19.7306L20.9249 18.5802ZM6.09994 18.0052L2.26863 16.8558L0.723816 22.0052H6.09994V18.0052ZM18.9999 18.0052V22.0052H21.9761L22.8312 19.1546L18.9999 18.0052ZM20.7999 12.0052L24.6312 13.1546L26.1761 8.00519H20.7999V12.0052ZM7.89994 12.0052V8.00519H4.92382L4.06863 10.8558L7.89994 12.0052ZM3.99994 16.0052C4.21037 16.0052 4.48186 16.045 4.77045 16.165C5.05848 16.2848 5.27379 16.4472 5.41587 16.5893L-0.240988 22.2461C0.894841 23.3819 2.38064 24.0052 3.99994 24.0052V16.0052ZM5.41587 16.5893C5.55794 16.7313 5.72029 16.9466 5.84009 17.2347C5.96012 17.5233 5.99994 17.7948 5.99994 18.0052H-2.00006C-2.00006 19.6245 -1.37682 21.1103 -0.240988 22.2461L5.41587 16.5893ZM5.99994 18.0052V6.00519H-2.00006V18.0052H5.99994ZM5.99994 6.00519C5.99994 6.21562 5.96012 6.48711 5.84009 6.7757C5.72029 7.06373 5.55794 7.27904 5.41587 7.42112L-0.240988 1.76426C-1.37682 2.90009 -2.00006 4.38589 -2.00006 6.00519H5.99994ZM5.41587 7.42112C5.27379 7.56319 5.05848 7.72554 4.77045 7.84534C4.48186 7.96537 4.21038 8.00519 3.99994 8.00519V0.00518799C2.38064 0.00518799 0.894839 0.628433 -0.240988 1.76426L5.41587 7.42112ZM3.99994 8.00519H9.99994V0.00518799H3.99994V8.00519ZM7.17151 6.83362L9.17151 8.83362L14.8284 3.17676L12.8284 1.17676L7.17151 6.83362ZM11.9999 10.0052H19.9999V2.00519H11.9999V10.0052ZM19.9999 10.0052C19.7895 10.0052 19.518 9.96537 19.2294 9.84534C18.9414 9.72554 18.7261 9.56319 18.584 9.42112L24.2409 3.76426C23.105 2.62843 21.6192 2.00519 19.9999 2.00519V10.0052ZM18.584 9.42112C18.4419 9.27904 18.2796 9.06373 18.1598 8.7757C18.0398 8.48711 17.9999 8.21562 17.9999 8.00519H25.9999C25.9999 6.38589 25.3767 4.90009 24.2409 3.76426L18.584 9.42112ZM21.9999 4.00519H11.1749V12.0052H21.9999V4.00519ZM14.0034 5.17676L12.0034 3.17676L6.34651 8.83362L8.34651 10.8336L14.0034 5.17676ZM9.17494 2.00519H3.99994V10.0052H9.17494V2.00519ZM-6.10352e-05 6.00519V18.0052H7.99994V6.00519H-6.10352e-05ZM7.83124 19.1546L10.2312 11.1546L2.56863 8.8558L0.168634 16.8558L7.83124 19.1546ZM6.39994 14.0052H23.4999V6.00519H6.39994V14.0052ZM19.6689 8.85477L17.0939 17.4298L24.7559 19.7306L27.3309 11.1556L19.6689 8.85477ZM17.1018 17.4038C17.1521 17.2405 17.2395 17.0452 17.3803 16.847C17.5219 16.648 17.6864 16.4896 17.8482 16.373L22.5266 22.8624C23.6114 22.0803 24.3658 20.9989 24.7481 19.7565L17.1018 17.4038ZM17.8482 16.373C17.9837 16.2753 18.1628 16.1768 18.3809 16.1056C18.5998 16.0342 18.8125 16.0052 18.9999 16.0052V24.0052C20.2903 24.0052 21.5014 23.6016 22.5266 22.8624L17.8482 16.373ZM18.9999 16.0052H3.99994V24.0052H18.9999V16.0052ZM6.09994 22.0052H18.9999V14.0052H6.09994V22.0052ZM22.8312 19.1546L24.6312 13.1546L16.9686 10.8558L15.1686 16.8558L22.8312 19.1546ZM20.7999 8.00519H7.89994V16.0052H20.7999V8.00519ZM4.06863 10.8558L2.26863 16.8558L9.93124 19.1546L11.7312 13.1546L4.06863 10.8558Z" fill="#211F27" mask="url(#path-2-inside-1_1471_929)"/>
</g>
</svg>
