<svg width="19" height="19" viewBox="0 0 19 19" fill="none" xmlns="http://www.w3.org/2000/svg">
<path d="M9.05726 14.7513C9.37226 14.7513 9.63851 14.6426 9.85601 14.4251C10.0735 14.2076 10.1823 13.9413 10.1823 13.6263C10.1823 13.3113 10.0735 13.0451 9.85601 12.8276C9.63851 12.6101 9.37226 12.5013 9.05726 12.5013C8.74226 12.5013 8.47601 12.6101 8.25851 12.8276C8.04101 13.0451 7.93226 13.3113 7.93226 13.6263C7.93226 13.9413 8.04101 14.2076 8.25851 14.4251C8.47601 14.6426 8.74226 14.7513 9.05726 14.7513ZM8.24726 11.2863H9.91226C9.91226 10.7913 9.96851 10.4013 10.081 10.1163C10.1935 9.83132 10.5123 9.44132 11.0373 8.94632C11.4273 8.55632 11.7348 8.18507 11.9598 7.83257C12.1848 7.48007 12.2973 7.05632 12.2973 6.56132C12.2973 5.72132 11.9898 5.07632 11.3748 4.62632C10.7598 4.17632 10.0323 3.95132 9.19226 3.95132C8.33726 3.95132 7.64351 4.17632 7.11101 4.62632C6.57851 5.07632 6.20726 5.61632 5.99726 6.24632L7.48226 6.83132C7.55726 6.56132 7.72601 6.26882 7.98851 5.95382C8.25101 5.63882 8.65226 5.48132 9.19226 5.48132C9.67226 5.48132 10.0323 5.61257 10.2723 5.87507C10.5123 6.13757 10.6323 6.42632 10.6323 6.74132C10.6323 7.04132 10.5423 7.32257 10.3623 7.58507C10.1823 7.84757 9.95726 8.09132 9.68726 8.31632C9.02726 8.90132 8.62226 9.34382 8.47226 9.64382C8.32226 9.94382 8.24726 10.4913 8.24726 11.2863ZM9.10226 18.3513C7.85726 18.3513 6.68726 18.1151 5.59226 17.6426C4.49726 17.1701 3.54476 16.5288 2.73476 15.7188C1.92476 14.9088 1.28351 13.9563 0.811014 12.8613C0.338514 11.7663 0.102264 10.5963 0.102264 9.35132C0.102264 8.10632 0.338514 6.93632 0.811014 5.84132C1.28351 4.74632 1.92476 3.79382 2.73476 2.98382C3.54476 2.17382 4.49726 1.53257 5.59226 1.06007C6.68726 0.587568 7.85726 0.351318 9.10226 0.351318C10.3473 0.351318 11.5173 0.587568 12.6123 1.06007C13.7073 1.53257 14.6598 2.17382 15.4698 2.98382C16.2798 3.79382 16.921 4.74632 17.3935 5.84132C17.866 6.93632 18.1023 8.10632 18.1023 9.35132C18.1023 10.5963 17.866 11.7663 17.3935 12.8613C16.921 13.9563 16.2798 14.9088 15.4698 15.7188C14.6598 16.5288 13.7073 17.1701 12.6123 17.6426C11.5173 18.1151 10.3473 18.3513 9.10226 18.3513ZM9.10226 16.5513C11.1123 16.5513 12.8148 15.8538 14.2098 14.4588C15.6048 13.0638 16.3023 11.3613 16.3023 9.35132C16.3023 7.34132 15.6048 5.63882 14.2098 4.24382C12.8148 2.84882 11.1123 2.15132 9.10226 2.15132C7.09226 2.15132 5.38976 2.84882 3.99476 4.24382C2.59976 5.63882 1.90226 7.34132 1.90226 9.35132C1.90226 11.3613 2.59976 13.0638 3.99476 14.4588C5.38976 15.8538 7.09226 16.5513 9.10226 16.5513Z" fill="#211F27"/>
</svg>
