<svg width="25" height="25" viewBox="0 0 25 25" fill="none" xmlns="http://www.w3.org/2000/svg">
<mask id="mask0_1516_248" style="mask-type:alpha" maskUnits="userSpaceOnUse" x="0" y="0" width="25" height="25">
<rect x="0.125366" y="0.361572" width="24" height="24" fill="#D9D9D9"/>
</mask>
<g mask="url(#mask0_1516_248)">
<path d="M12.3732 16.7725C12.6182 16.7725 12.8253 16.6879 12.9945 16.5188C13.1636 16.3496 13.2482 16.1425 13.2482 15.8975C13.2482 15.6525 13.1636 15.4454 12.9945 15.2763C12.8253 15.1071 12.6182 15.0225 12.3732 15.0225C12.1282 15.0225 11.9211 15.1071 11.752 15.2763C11.5828 15.4454 11.4982 15.6525 11.4982 15.8975C11.4982 16.1425 11.5828 16.3496 11.752 16.5188C11.9211 16.6879 12.1282 16.7725 12.3732 16.7725ZM11.7432 14.0775H13.0382C13.0382 13.6925 13.082 13.3892 13.1695 13.1675C13.257 12.9458 13.5049 12.6425 13.9132 12.2575C14.2165 11.9542 14.4557 11.6654 14.6307 11.3913C14.8057 11.1171 14.8932 10.7875 14.8932 10.4025C14.8932 9.74918 14.654 9.24751 14.1757 8.89751C13.6974 8.54751 13.1315 8.37251 12.4782 8.37251C11.8132 8.37251 11.2736 8.54751 10.8595 8.89751C10.4453 9.24751 10.1565 9.66751 9.9932 10.1575L11.1482 10.6125C11.2065 10.4025 11.3378 10.175 11.542 9.93001C11.7461 9.68501 12.0582 9.56251 12.4782 9.56251C12.8515 9.56251 13.1315 9.66459 13.3182 9.86876C13.5049 10.0729 13.5982 10.2975 13.5982 10.5425C13.5982 10.7758 13.5282 10.9946 13.3882 11.1988C13.2482 11.4029 13.0732 11.5925 12.8632 11.7675C12.3499 12.2225 12.0349 12.5667 11.9182 12.8C11.8015 13.0333 11.7432 13.4592 11.7432 14.0775ZM12.4082 19.5725C11.4399 19.5725 10.5299 19.3888 9.6782 19.0213C8.82654 18.6538 8.0857 18.155 7.4557 17.525C6.8257 16.895 6.32695 16.1542 5.95945 15.3025C5.59195 14.4508 5.4082 13.5408 5.4082 12.5725C5.4082 11.6042 5.59195 10.6942 5.95945 9.84251C6.32695 8.99084 6.8257 8.25001 7.4557 7.62001C8.0857 6.99001 8.82654 6.49126 9.6782 6.12376C10.5299 5.75626 11.4399 5.57251 12.4082 5.57251C13.3765 5.57251 14.2865 5.75626 15.1382 6.12376C15.9899 6.49126 16.7307 6.99001 17.3607 7.62001C17.9907 8.25001 18.4895 8.99084 18.857 9.84251C19.2245 10.6942 19.4082 11.6042 19.4082 12.5725C19.4082 13.5408 19.2245 14.4508 18.857 15.3025C18.4895 16.1542 17.9907 16.895 17.3607 17.525C16.7307 18.155 15.9899 18.6538 15.1382 19.0213C14.2865 19.3888 13.3765 19.5725 12.4082 19.5725ZM12.4082 18.1725C13.9715 18.1725 15.2957 17.63 16.3807 16.545C17.4657 15.46 18.0082 14.1358 18.0082 12.5725C18.0082 11.0092 17.4657 9.68501 16.3807 8.60001C15.2957 7.51501 13.9715 6.97251 12.4082 6.97251C10.8449 6.97251 9.5207 7.51501 8.4357 8.60001C7.3507 9.68501 6.8082 11.0092 6.8082 12.5725C6.8082 14.1358 7.3507 15.46 8.4357 16.545C9.5207 17.63 10.8449 18.1725 12.4082 18.1725Z" fill="#211F27"/>
</g>
</svg>
