<svg width="16" height="16" viewBox="0 0 16 16" fill="none" xmlns="http://www.w3.org/2000/svg">
<path d="M2.01933 15.8545C1.56099 15.8545 1.16863 15.6913 0.842244 15.3649C0.515856 15.0385 0.352661 14.6462 0.352661 14.1878V2.52116C0.352661 2.06283 0.515856 1.67046 0.842244 1.34408C1.16863 1.01769 1.56099 0.854492 2.01933 0.854492H13.686C14.1443 0.854492 14.5367 1.01769 14.8631 1.34408C15.1895 1.67046 15.3527 2.06283 15.3527 2.52116V14.1878C15.3527 14.6462 15.1895 15.0385 14.8631 15.3649C14.5367 15.6913 14.1443 15.8545 13.686 15.8545H2.01933ZM2.01933 14.1878H13.686V5.02116H2.01933V14.1878Z" fill="#1C1B1F"/>
</svg>
