<svg width="16" height="5" viewBox="0 0 16 5" fill="none" xmlns="http://www.w3.org/2000/svg">
<path d="M2.53012 4.22949C2.0145 4.22949 1.57309 4.0459 1.2059 3.67871C0.838715 3.31152 0.655121 2.87012 0.655121 2.35449C0.655121 1.83887 0.838715 1.39746 1.2059 1.03027C1.57309 0.663086 2.0145 0.479492 2.53012 0.479492C3.04575 0.479492 3.48715 0.663086 3.85434 1.03027C4.22153 1.39746 4.40512 1.83887 4.40512 2.35449C4.40512 2.87012 4.22153 3.31152 3.85434 3.67871C3.48715 4.0459 3.04575 4.22949 2.53012 4.22949ZM8.15512 4.22949C7.6395 4.22949 7.19809 4.0459 6.8309 3.67871C6.46371 3.31152 6.28012 2.87012 6.28012 2.35449C6.28012 1.83887 6.46371 1.39746 6.8309 1.03027C7.19809 0.663086 7.6395 0.479492 8.15512 0.479492C8.67075 0.479492 9.11215 0.663086 9.47934 1.03027C9.84653 1.39746 10.0301 1.83887 10.0301 2.35449C10.0301 2.87012 9.84653 3.31152 9.47934 3.67871C9.11215 4.0459 8.67075 4.22949 8.15512 4.22949ZM13.7801 4.22949C13.2645 4.22949 12.8231 4.0459 12.4559 3.67871C12.0887 3.31152 11.9051 2.87012 11.9051 2.35449C11.9051 1.83887 12.0887 1.39746 12.4559 1.03027C12.8231 0.663086 13.2645 0.479492 13.7801 0.479492C14.2957 0.479492 14.7372 0.663086 15.1043 1.03027C15.4715 1.39746 15.6551 1.83887 15.6551 2.35449C15.6551 2.87012 15.4715 3.31152 15.1043 3.67871C14.7372 4.0459 14.2957 4.22949 13.7801 4.22949Z" fill="#211F27"/>
</svg>
