<?xml version="1.0" encoding="UTF-8"?><svg id="Layer_1" xmlns="http://www.w3.org/2000/svg" viewBox="0 0 20 20"><path d="m18.38,5.33c0-1.98-1.61-3.59-3.59-3.59s-3.59,1.61-3.59,3.59,1.61,3.59,3.59,3.59,3.59-1.61,3.59-3.59Zm-1.69,0c0,1.05-.85,1.91-1.91,1.91s-1.91-.85-1.91-1.91.85-1.91,1.91-1.91,1.91.85,1.91,1.91Z"/><path d="m6.35,4.97c1.02-.68,2.21-1.04,3.43-1.04.5,0,.91-.41.91-.91s-.41-.91-.91-.91c-1.58,0-3.13.47-4.44,1.35-1.31.88-2.34,2.13-2.94,3.59-.61,1.46-.76,3.07-.45,4.62.31,1.55,1.07,2.98,2.19,4.09,1.12,1.12,2.54,1.88,4.09,2.19,1.55.31,3.16.15,4.62-.45,1.46-.61,2.71-1.63,3.59-2.94.88-1.31,1.35-2.86,1.35-4.44,0-.5-.41-.91-.91-.91s-.91.41-.91.91c0,1.22-.36,2.41-1.04,3.43-.68,1.02-1.64,1.81-2.77,2.27-1.13.47-2.37.59-3.57.35-1.2-.24-2.3-.83-3.16-1.69-.86-.86-1.45-1.96-1.69-3.16-.24-1.2-.12-2.44.35-3.57s1.26-2.09,2.27-2.77Z"/></svg>