<svg width="19" height="19" viewBox="0 0 19 19" fill="none" xmlns="http://www.w3.org/2000/svg">
<mask id="path-1-inside-1_1598_270" fill="white">
<path fill-rule="evenodd" clip-rule="evenodd" d="M14.5233 8.57983C16.8052 8.57983 18.6551 6.72995 18.6551 4.448C18.6551 2.16605 16.8052 0.316162 14.5233 0.316162C12.2413 0.316162 10.3914 2.16605 10.3914 4.448C10.3914 6.72995 12.2413 8.57983 14.5233 8.57983ZM5.53024 4.31016C6.61467 3.58556 7.88962 3.19881 9.19385 3.19881C9.73078 3.19881 10.166 2.76354 10.166 2.22661C10.166 1.68968 9.73078 1.25442 9.19385 1.25442C7.50505 1.25442 5.85418 1.75521 4.44999 2.69345C3.0458 3.6317 1.95137 4.96527 1.3051 6.52552C0.658821 8.08577 0.489725 9.80262 0.819194 11.459C1.14866 13.1153 1.9619 14.6368 3.15606 15.8309C4.35022 17.0251 5.87168 17.8383 7.52803 18.1678C9.18438 18.4973 10.9012 18.3282 12.4615 17.6819C14.0217 17.0356 15.3553 15.9412 16.2935 14.537C17.2318 13.1328 17.7326 11.4819 17.7326 9.79315C17.7326 9.25622 17.2973 8.82095 16.7604 8.82095C16.2235 8.82095 15.7882 9.25622 15.7882 9.79315C15.7882 11.0974 15.4014 12.3723 14.6768 13.4568C13.9522 14.5412 12.9224 15.3864 11.7174 15.8855C10.5124 16.3846 9.18654 16.5152 7.90736 16.2608C6.62819 16.0063 5.45319 15.3783 4.53095 14.456C3.60872 13.5338 2.98067 12.3588 2.72623 11.0796C2.47178 9.80046 2.60237 8.47456 3.10148 7.2696C3.60059 6.06465 4.4458 5.03475 5.53024 4.31016Z"/>
</mask>
<path fill-rule="evenodd" clip-rule="evenodd" d="M14.5233 8.57983C16.8052 8.57983 18.6551 6.72995 18.6551 4.448C18.6551 2.16605 16.8052 0.316162 14.5233 0.316162C12.2413 0.316162 10.3914 2.16605 10.3914 4.448C10.3914 6.72995 12.2413 8.57983 14.5233 8.57983ZM5.53024 4.31016C6.61467 3.58556 7.88962 3.19881 9.19385 3.19881C9.73078 3.19881 10.166 2.76354 10.166 2.22661C10.166 1.68968 9.73078 1.25442 9.19385 1.25442C7.50505 1.25442 5.85418 1.75521 4.44999 2.69345C3.0458 3.6317 1.95137 4.96527 1.3051 6.52552C0.658821 8.08577 0.489725 9.80262 0.819194 11.459C1.14866 13.1153 1.9619 14.6368 3.15606 15.8309C4.35022 17.0251 5.87168 17.8383 7.52803 18.1678C9.18438 18.4973 10.9012 18.3282 12.4615 17.6819C14.0217 17.0356 15.3553 15.9412 16.2935 14.537C17.2318 13.1328 17.7326 11.4819 17.7326 9.79315C17.7326 9.25622 17.2973 8.82095 16.7604 8.82095C16.2235 8.82095 15.7882 9.25622 15.7882 9.79315C15.7882 11.0974 15.4014 12.3723 14.6768 13.4568C13.9522 14.5412 12.9224 15.3864 11.7174 15.8855C10.5124 16.3846 9.18654 16.5152 7.90736 16.2608C6.62819 16.0063 5.45319 15.3783 4.53095 14.456C3.60872 13.5338 2.98067 12.3588 2.72623 11.0796C2.47178 9.80046 2.60237 8.47456 3.10148 7.2696C3.60059 6.06465 4.4458 5.03475 5.53024 4.31016Z" fill="white"/>
<path d="M5.53024 4.31016L6.64138 5.9731L6.64138 5.9731L5.53024 4.31016ZM4.44999 2.69345L3.33885 1.03051L3.33885 1.03051L4.44999 2.69345ZM1.3051 6.52552L3.15286 7.29088L3.15286 7.29088L1.3051 6.52552ZM0.819194 11.459L2.78076 11.0688L2.78076 11.0688L0.819194 11.459ZM3.15606 15.8309L4.57027 14.4167L4.57027 14.4167L3.15606 15.8309ZM7.52803 18.1678L7.13785 20.1294L7.13785 20.1294L7.52803 18.1678ZM16.2935 14.537L17.9565 15.6482L17.9565 15.6482L16.2935 14.537ZM14.6768 13.4568L13.0139 12.3456L13.0139 12.3456L14.6768 13.4568ZM11.7174 15.8855L10.952 14.0378L10.952 14.0378L11.7174 15.8855ZM7.90736 16.2608L8.29754 14.2992L8.29754 14.2992L7.90736 16.2608ZM4.53095 14.456L5.94517 13.0418L5.94517 13.0418L4.53095 14.456ZM3.10148 7.2696L1.25372 6.50424L1.25372 6.50424L3.10148 7.2696ZM16.6551 4.448C16.6551 5.62538 15.7007 6.57983 14.5233 6.57983V10.5798C17.9098 10.5798 20.6551 7.83452 20.6551 4.448H16.6551ZM14.5233 2.31616C15.7007 2.31616 16.6551 3.27062 16.6551 4.448H20.6551C20.6551 1.06148 17.9098 -1.68384 14.5233 -1.68384V2.31616ZM12.3914 4.448C12.3914 3.27062 13.3459 2.31616 14.5233 2.31616V-1.68384C11.1368 -1.68384 8.39145 1.06148 8.39145 4.448H12.3914ZM14.5233 6.57983C13.3459 6.57983 12.3914 5.62538 12.3914 4.448H8.39145C8.39145 7.83452 11.1368 10.5798 14.5233 10.5798V6.57983ZM9.19385 1.19881C7.49405 1.19881 5.83243 1.70286 4.4191 2.64722L6.64138 5.9731C7.39691 5.46826 8.28518 5.19881 9.19385 5.19881V1.19881ZM8.16605 2.22661C8.16605 1.65898 8.62621 1.19881 9.19385 1.19881V5.19881C10.8354 5.19881 12.166 3.86811 12.166 2.22661H8.16605ZM9.19385 3.25442C8.62621 3.25442 8.16605 2.79425 8.16605 2.22661H12.166C12.166 0.585117 10.8354 -0.745583 9.19385 -0.745583V3.25442ZM5.56113 4.35639C6.63642 3.63791 7.90062 3.25442 9.19385 3.25442V-0.745583C7.10949 -0.745583 5.07193 -0.127497 3.33885 1.03051L5.56113 4.35639ZM3.15286 7.29088C3.64776 6.09609 4.48584 5.07488 5.56113 4.35639L3.33885 1.03051C1.60576 2.18852 0.254989 3.83445 -0.542662 5.76015L3.15286 7.29088ZM2.78076 11.0688C2.52847 9.8004 2.65795 8.48568 3.15286 7.29088L-0.542662 5.76015C-1.34031 7.68585 -1.54902 9.80484 -1.14238 11.8491L2.78076 11.0688ZM4.57027 14.4167C3.65582 13.5023 3.03306 12.3372 2.78076 11.0688L-1.14238 11.8491C-0.735738 13.8935 0.267979 15.7713 1.74185 17.2452L4.57027 14.4167ZM7.91821 16.2062C6.64982 15.9539 5.48473 15.3312 4.57027 14.4167L1.74185 17.2452C3.21572 18.719 5.09354 19.7227 7.13785 20.1294L7.91821 16.2062ZM11.6961 15.8341C10.5013 16.329 9.1866 16.4585 7.91821 16.2062L7.13785 20.1294C9.18216 20.536 11.3011 20.3273 13.2269 19.5297L11.6961 15.8341ZM14.6306 13.4259C13.9121 14.5012 12.8909 15.3392 11.6961 15.8341L13.2269 19.5297C15.1526 18.732 16.7985 17.3812 17.9565 15.6482L14.6306 13.4259ZM15.7326 9.79315C15.7326 11.0864 15.3491 12.3506 14.6306 13.4259L17.9565 15.6482C19.1145 13.9151 19.7326 11.8775 19.7326 9.79315H15.7326ZM16.7604 10.8209C16.1927 10.8209 15.7326 10.3608 15.7326 9.79315H19.7326C19.7326 8.15165 18.4019 6.82095 16.7604 6.82095V10.8209ZM17.7882 9.79315C17.7882 10.3608 17.328 10.8209 16.7604 10.8209V6.82095C15.1189 6.82095 13.7882 8.15165 13.7882 9.79315H17.7882ZM16.3398 14.5679C17.2841 13.1546 17.7882 11.4929 17.7882 9.79315H13.7882C13.7882 10.7018 13.5187 11.5901 13.0139 12.3456L16.3398 14.5679ZM12.4828 17.7333C14.0532 17.0828 15.3954 15.9812 16.3398 14.5679L13.0139 12.3456C12.5091 13.1012 11.7915 13.69 10.952 14.0378L12.4828 17.7333ZM7.51718 18.2223C9.18432 18.554 10.9124 18.3838 12.4828 17.7333L10.952 14.0378C10.1125 14.3855 9.18876 14.4765 8.29754 14.2992L7.51718 18.2223ZM3.11674 15.8703C4.31868 17.0722 5.85004 17.8907 7.51718 18.2223L8.29754 14.2992C7.40633 14.1219 6.5877 13.6844 5.94517 13.0418L3.11674 15.8703ZM0.764656 11.4698C1.09627 13.137 1.9148 14.6683 3.11674 15.8703L5.94517 13.0418C5.30264 12.3993 4.86507 11.5807 4.6878 10.6895L0.764656 11.4698ZM1.25372 6.50424C0.603238 8.07465 0.433042 9.80268 0.764656 11.4698L4.6878 10.6895C4.51052 9.79824 4.60151 8.87448 4.94924 8.03497L1.25372 6.50424ZM4.4191 2.64722C3.00577 3.59158 1.90421 4.93383 1.25372 6.50424L4.94924 8.03497C5.29698 7.19547 5.88584 6.47793 6.64138 5.9731L4.4191 2.64722Z" fill="black" mask="url(#path-1-inside-1_1598_270)"/>
</svg>
