<svg width="19" height="19" viewBox="0 0 19 19" fill="none" xmlns="http://www.w3.org/2000/svg">
<path d="M18.3799 4.69316C18.3799 2.57407 16.6621 0.856201 14.543 0.856201C12.4239 0.856201 10.706 2.57407 10.706 4.69316C10.706 6.81226 12.4239 8.53012 14.543 8.53012C16.6621 8.53012 18.3799 6.81226 18.3799 4.69316ZM16.5799 4.69316C16.5799 5.81814 15.668 6.73012 14.543 6.73012C13.418 6.73012 12.506 5.81814 12.506 4.69316C12.506 3.56818 13.418 2.6562 14.543 2.6562C15.668 2.6562 16.5799 3.56818 16.5799 4.69316Z" fill="black"/>
<path d="M5.53024 4.31013C6.61467 3.58554 7.88962 3.19879 9.19385 3.19879C9.73078 3.19879 10.166 2.76352 10.166 2.22659C10.166 1.68966 9.73078 1.25439 9.19385 1.25439C7.50505 1.25439 5.85418 1.75518 4.44999 2.69343C3.0458 3.63168 1.95137 4.96525 1.3051 6.52549C0.658821 8.08574 0.489725 9.8026 0.819194 11.4589C1.14866 13.1153 1.9619 14.6368 3.15606 15.8309C4.35022 17.0251 5.87168 17.8383 7.52803 18.1678C9.18438 18.4973 10.9012 18.3282 12.4615 17.6819C14.0217 17.0356 15.3553 15.9412 16.2935 14.537C17.2318 13.1328 17.7326 11.4819 17.7326 9.79312C17.7326 9.25619 17.2973 8.82093 16.7604 8.82093C16.2235 8.82093 15.7882 9.25619 15.7882 9.79312C15.7882 11.0974 15.4014 12.3723 14.6768 13.4567C13.9522 14.5412 12.9224 15.3864 11.7174 15.8855C10.5124 16.3846 9.18654 16.5152 7.90736 16.2608C6.62819 16.0063 5.45319 15.3783 4.53095 14.456C3.60872 13.5338 2.98067 12.3588 2.72623 11.0796C2.47178 9.80044 2.60237 8.47454 3.10148 7.26958C3.60059 6.06462 4.4458 5.03473 5.53024 4.31013Z" fill="black"/>
</svg>