<svg width="19" height="19" viewBox="0 0 19 19" fill="none" xmlns="http://www.w3.org/2000/svg">
<path d="M5.22177 1.80292C6.57067 1.03938 8.0976 0.635254 9.65512 0.635254C10.2706 0.635254 10.7696 1.13423 10.7696 1.74975C10.7696 1.86668 10.7516 1.9794 10.7182 2.0853C10.7005 2.14141 10.6785 2.19561 10.6526 2.2475C10.4697 2.61316 10.0918 2.86425 9.65512 2.86425C8.31594 2.86425 7.00684 3.26136 5.89335 4.00537C4.77987 4.74937 3.91201 5.80686 3.39953 7.0441C2.88705 8.28134 2.75296 9.64276 3.01422 10.9562C3.27548 12.2696 3.92036 13.4761 4.8673 14.4231C5.81424 15.37 7.02072 16.0149 8.33417 16.2761C8.49835 16.3088 8.66328 16.3353 8.82862 16.3556C9.98602 16.498 11.1637 16.3393 12.2463 15.8908C12.3236 15.8588 12.4002 15.8254 12.4761 15.7906C13.6145 15.2689 14.5875 14.4409 15.285 13.397C16.029 12.2835 16.4261 10.9744 16.4261 9.63525C16.4261 9.35721 16.5279 9.10294 16.6963 8.90771C16.9007 8.67075 17.2031 8.52075 17.5406 8.52075C17.5829 8.52075 17.6245 8.5231 17.6655 8.52768C18.2223 8.58977 18.6551 9.06196 18.6551 9.63525C18.6551 11.4153 18.1273 13.1553 17.1383 14.6354C16.1494 16.1154 14.7438 17.269 13.0993 17.9502C11.4547 18.6313 9.64514 18.8096 7.89931 18.4623C7.7902 18.4406 7.68164 18.4169 7.57368 18.3912C5.95437 18.0063 4.47117 17.1792 3.29116 15.9992C3.13383 15.8419 2.98277 15.6791 2.83819 15.5114C1.82617 14.3374 1.13192 12.9187 0.828057 11.3911C0.48079 9.64523 0.65902 7.83563 1.34021 6.1911C1.38278 6.08832 1.4272 5.98647 1.47343 5.88559C2.16687 4.37249 3.26745 3.07915 4.65499 2.15203C4.84 2.02841 5.02907 1.912 5.22177 1.80292ZM16.9835 6.33796C17.6953 5.82906 18.1592 4.99574 18.1592 4.05406C18.1592 2.5045 16.903 1.24833 15.3535 1.24833C14.2161 1.24833 13.2368 1.9251 12.7963 2.89791C12.7652 2.96642 12.7369 3.0364 12.7113 3.10771C12.6054 3.40337 12.5477 3.72198 12.5477 4.05406C12.5477 5.60362 13.8039 6.85979 15.3535 6.85979C15.474 6.85979 15.5928 6.85218 15.7093 6.83743C16.1805 6.7778 16.6152 6.60132 16.9835 6.33796ZM15.3535 4.63079C15.0349 4.63079 14.7767 4.37258 14.7767 4.05406C14.7767 3.73554 15.0349 3.47733 15.3535 3.47733C15.672 3.47733 15.9302 3.73554 15.9302 4.05406C15.9302 4.37258 15.672 4.63079 15.3535 4.63079Z" fill="#211F27"/>
</svg>