<?xml version="1.0" encoding="UTF-8"?><svg id="Layer_1" xmlns="http://www.w3.org/2000/svg" viewBox="0 0 20 20"><defs><style>.cls-1{fill:#211f27;}</style></defs><path class="cls-1" d="m6.06,3.15c1.2-.68,2.55-1.04,3.94-1.04.55,0,.99.44.99.99,0,.1-.02.2-.05.3-.02.05-.04.1-.06.14-.16.32-.5.55-.89.55-1.19,0-2.35.35-3.34,1.01-.99.66-1.76,1.6-2.22,2.7s-.57,2.31-.34,3.47c.23,1.17.8,2.24,1.65,3.08.84.84,1.91,1.41,3.08,1.65.15.03.29.05.44.07,1.03.13,2.07-.01,3.04-.41.07-.03.14-.06.2-.09,1.01-.46,1.88-1.2,2.49-2.13.66-.99,1.01-2.15,1.01-3.34,0-.25.09-.47.24-.65.18-.21.45-.34.75-.34.04,0,.07,0,.11,0,.49.06.88.47.88.98,0,1.58-.47,3.13-1.35,4.44-.88,1.31-2.13,2.34-3.59,2.94-1.46.6-3.07.76-4.62.45-.1-.02-.19-.04-.29-.06-1.44-.34-2.76-1.08-3.8-2.12-.14-.14-.27-.28-.4-.43-.9-1.04-1.52-2.3-1.79-3.66-.31-1.55-.15-3.16.45-4.62.04-.09.08-.18.12-.27.62-1.34,1.59-2.49,2.83-3.32.16-.11.33-.21.5-.31Zm10.45,4.03c.63-.45,1.04-1.19,1.04-2.03,0-1.38-1.12-2.49-2.49-2.49-1.01,0-1.88.6-2.27,1.47-.03.06-.05.12-.08.19-.09.26-.15.55-.15.84,0,1.38,1.12,2.49,2.49,2.49.11,0,.21,0,.32-.02.42-.05.8-.21,1.13-.44Zm-1.45-1.52c-.28,0-.51-.23-.51-.51s.23-.51.51-.51.51.23.51.51-.23.51-.51.51Z"/></svg>