<svg width="18" height="19" viewBox="0 0 18 19" fill="none" xmlns="http://www.w3.org/2000/svg">
<path d="M2.77648 15.2057V13.4581H4.52406V7.34161C4.52406 6.86103 4.58595 6.38773 4.70974 5.92171C4.83352 5.45569 5.0192 5.01151 5.26677 4.58918L6.57745 5.89986C6.47551 6.13287 6.39906 6.36952 6.34809 6.60981C6.29711 6.8501 6.27163 7.09404 6.27163 7.34161V13.4581H11.6891L0.504639 2.27365L1.72794 1.05035L17.8056 17.128L16.5823 18.3513L13.393 15.2057H2.77648ZM15.0095 11.8416L13.2619 10.094V7.34161C13.2619 6.38044 12.9197 5.55763 12.2352 4.87316C11.5508 4.1887 10.7279 3.84646 9.76678 3.84646C9.38813 3.84646 9.02406 3.90472 8.67454 4.02122C8.32503 4.13773 8.00464 4.31248 7.71338 4.54549L6.44639 3.2785C6.73765 3.04549 7.05076 2.84161 7.38571 2.66685C7.72066 2.4921 8.07745 2.36103 8.4561 2.27365V1.662C8.4561 1.29792 8.58352 0.988454 8.83838 0.7336C9.09323 0.478746 9.4027 0.351318 9.76678 0.351318C10.1309 0.351318 10.4403 0.478746 10.6952 0.7336C10.95 0.988454 11.0775 1.29792 11.0775 1.662V2.27365C12.2425 2.56491 13.1891 3.1802 13.9173 4.11952C14.6454 5.05884 15.0095 6.13287 15.0095 7.34161V11.8416ZM9.76678 17.827C9.28619 17.827 8.87478 17.6559 8.53255 17.3137C8.19032 16.9715 8.0192 16.5601 8.0192 16.0795H11.5143C11.5143 16.5601 11.3432 16.9715 11.001 17.3137C10.6588 17.6559 10.2474 17.827 9.76678 17.827Z" fill="#211F27"/>
</svg>
