<svg width="19" height="19" viewBox="0 0 19 19" fill="none" xmlns="http://www.w3.org/2000/svg">
<path d="M8.60464 13.7893H10.4046V8.38931H8.60464V13.7893ZM9.50464 6.58931C9.75964 6.58931 9.97339 6.50306 10.1459 6.33056C10.3184 6.15806 10.4046 5.94431 10.4046 5.68931C10.4046 5.43431 10.3184 5.22056 10.1459 5.04806C9.97339 4.87556 9.75964 4.78931 9.50464 4.78931C9.24964 4.78931 9.03589 4.87556 8.86339 5.04806C8.69089 5.22056 8.60464 5.43431 8.60464 5.68931C8.60464 5.94431 8.69089 6.15806 8.86339 6.33056C9.03589 6.50306 9.24964 6.58931 9.50464 6.58931ZM9.50464 18.2893C8.25964 18.2893 7.08964 18.0531 5.99464 17.5806C4.89964 17.1081 3.94714 16.4668 3.13714 15.6568C2.32714 14.8468 1.68589 13.8943 1.21339 12.7993C0.740889 11.7043 0.504639 10.5343 0.504639 9.28931C0.504639 8.04431 0.740889 6.87431 1.21339 5.77931C1.68589 4.68431 2.32714 3.73181 3.13714 2.92181C3.94714 2.11181 4.89964 1.47056 5.99464 0.998057C7.08964 0.525557 8.25964 0.289307 9.50464 0.289307C10.7496 0.289307 11.9196 0.525557 13.0146 0.998057C14.1096 1.47056 15.0621 2.11181 15.8721 2.92181C16.6821 3.73181 17.3234 4.68431 17.7959 5.77931C18.2684 6.87431 18.5046 8.04431 18.5046 9.28931C18.5046 10.5343 18.2684 11.7043 17.7959 12.7993C17.3234 13.8943 16.6821 14.8468 15.8721 15.6568C15.0621 16.4668 14.1096 17.1081 13.0146 17.5806C11.9196 18.0531 10.7496 18.2893 9.50464 18.2893ZM9.50464 16.4893C11.5146 16.4893 13.2171 15.7918 14.6121 14.3968C16.0071 13.0018 16.7046 11.2993 16.7046 9.28931C16.7046 7.27931 16.0071 5.57681 14.6121 4.18181C13.2171 2.78681 11.5146 2.08931 9.50464 2.08931C7.49464 2.08931 5.79214 2.78681 4.39714 4.18181C3.00214 5.57681 2.30464 7.27931 2.30464 9.28931C2.30464 11.2993 3.00214 13.0018 4.39714 14.3968C5.79214 15.7918 7.49464 16.4893 9.50464 16.4893Z" fill="#211F27"/>
</svg>
