<svg width="19" height="18" viewBox="0 0 19 18" fill="none" xmlns="http://www.w3.org/2000/svg">
<path d="M16.5955 15.2317C16.6132 15.2648 16.6133 15.2813 16.6131 15.2892C16.6129 15.3031 16.6088 15.3254 16.5955 15.3503C16.5821 15.3753 16.5661 15.3902 16.5551 15.3974C16.5488 15.4014 16.5355 15.4096 16.5 15.4096H2.40455C2.36904 15.4096 2.35571 15.4014 2.34946 15.3974C2.33839 15.3902 2.32245 15.3753 2.30907 15.3503C2.2957 15.3254 2.29163 15.3031 2.29141 15.2892C2.29128 15.2813 2.29131 15.2648 2.30907 15.2317L9.35679 2.0964C9.37455 2.06331 9.38784 2.055 9.39421 2.0512C9.40551 2.04447 9.42552 2.03709 9.45227 2.03709C9.47902 2.03709 9.49903 2.04447 9.51033 2.0512C9.5167 2.055 9.52999 2.0633 9.54775 2.0964L16.5955 15.2317ZM11.1405 1.10691C10.3902 -0.291498 8.51438 -0.291495 7.76406 1.10691L0.716345 14.2422C-0.0339688 15.6406 0.903926 17.3886 2.40455 17.3886H16.5C18.0006 17.3886 18.9385 15.6406 18.1882 14.2422L11.1405 1.10691Z" fill="#F1AD00"/>
<path d="M9.99009 13.4696C9.8392 13.6319 9.65222 13.7131 9.42917 13.7131C9.20611 13.7131 9.01914 13.6319 8.86825 13.4696C8.71736 13.3072 8.64191 13.106 8.64191 12.866C8.64191 12.626 8.71736 12.4248 8.86825 12.2624C9.01914 12.1001 9.20611 12.0189 9.42917 12.0189C9.65222 12.0189 9.8392 12.1001 9.99009 12.2624C10.141 12.4248 10.2164 12.626 10.2164 12.866C10.2164 13.106 10.141 13.3072 9.99009 13.4696Z" fill="#F1AD00"/>
<path d="M10.2164 11.1718H8.64191V6.93618H10.2164V11.1718Z" fill="#F1AD00"/>
</svg>
