<svg width="16" height="19" viewBox="0 0 16 19" fill="none" xmlns="http://www.w3.org/2000/svg">
<path d="M7.20513 18.3513C6.71013 18.3513 6.28638 18.1751 5.93388 17.8226C5.58138 17.4701 5.40513 17.0463 5.40513 16.5513H9.00513C9.00513 17.0463 8.82888 17.4701 8.47638 17.8226C8.12388 18.1751 7.70013 18.3513 7.20513 18.3513ZM0.00512695 15.6513V13.8513H1.80513V7.55132C1.80513 6.30632 2.18013 5.20007 2.93013 4.23257C3.68013 3.26507 4.65513 2.63132 5.85513 2.33132V1.70132C5.85513 1.32632 5.98638 1.00757 6.24888 0.745068C6.51138 0.482568 6.83013 0.351318 7.20513 0.351318C7.58013 0.351318 7.89888 0.482568 8.16138 0.745068C8.42388 1.00757 8.55513 1.32632 8.55513 1.70132V1.99382C8.39013 2.32382 8.27013 2.66132 8.19513 3.00632C8.12013 3.35132 8.09013 3.70382 8.10513 4.06382C7.95513 4.03382 7.80888 4.00757 7.66638 3.98507C7.52388 3.96257 7.37013 3.95132 7.20513 3.95132C6.21513 3.95132 5.36763 4.30382 4.66263 5.00882C3.95763 5.71382 3.60513 6.56132 3.60513 7.55132V13.8513H10.8051V8.06882C11.0751 8.18882 11.3639 8.28257 11.6714 8.35007C11.9789 8.41757 12.2901 8.45132 12.6051 8.45132V13.8513H14.4051V15.6513H0.00512695ZM12.6051 6.65132C11.8551 6.65132 11.2176 6.38882 10.6926 5.86382C10.1676 5.33882 9.90513 4.70132 9.90513 3.95132C9.90513 3.20132 10.1676 2.56382 10.6926 2.03882C11.2176 1.51382 11.8551 1.25132 12.6051 1.25132C13.3551 1.25132 13.9926 1.51382 14.5176 2.03882C15.0426 2.56382 15.3051 3.20132 15.3051 3.95132C15.3051 4.70132 15.0426 5.33882 14.5176 5.86382C13.9926 6.38882 13.3551 6.65132 12.6051 6.65132Z" fill="#211F27"/>
</svg>
