<svg width="19" height="19" viewBox="0 0 19 19" fill="none" xmlns="http://www.w3.org/2000/svg">
<path d="M0.792633 7.54871C0.792633 6.05245 1.12555 4.67963 1.79139 3.43026C2.45722 2.18088 3.35124 1.14472 4.47343 0.321777L5.52829 1.75819C4.63054 2.41654 3.91607 3.24696 3.3849 4.24946C2.85373 5.25195 2.58814 6.3517 2.58814 7.54871H0.792633ZM16.9522 7.54871C16.9522 6.3517 16.6866 5.25195 16.1555 4.24946C15.6243 3.24696 14.9098 2.41654 14.0121 1.75819L15.0669 0.321777C16.1891 1.14472 17.0832 2.18088 17.749 3.43026C18.4148 4.67963 18.7477 6.05245 18.7477 7.54871H16.9522ZM2.58814 15.6285V13.833H4.38366V7.54871C4.38366 6.30682 4.75772 5.20332 5.50585 4.23824C6.25398 3.27315 7.22655 2.64098 8.42355 2.34173V1.7133C8.42355 1.33923 8.55448 1.02128 8.81632 0.759433C9.07817 0.497588 9.39612 0.366665 9.77019 0.366665C10.1443 0.366665 10.4622 0.497588 10.7241 0.759433C10.9859 1.02128 11.1168 1.33923 11.1168 1.7133V2.34173C12.3138 2.64098 13.2864 3.27315 14.0345 4.23824C14.7827 5.20332 15.1567 6.30682 15.1567 7.54871V13.833H16.9522V15.6285H2.58814ZM9.77019 18.3218C9.27642 18.3218 8.85373 18.146 8.50211 17.7943C8.15049 17.4427 7.97468 17.02 7.97468 16.5263H11.5657C11.5657 17.02 11.3899 17.4427 11.0383 17.7943C10.6866 18.146 10.264 18.3218 9.77019 18.3218ZM6.17917 13.833H13.3612V7.54871C13.3612 6.56118 13.0096 5.71579 12.3063 5.01255C11.6031 4.30931 10.7577 3.95769 9.77019 3.95769C8.78266 3.95769 7.93727 4.30931 7.23403 5.01255C6.53079 5.71579 6.17917 6.56118 6.17917 7.54871V13.833Z" fill="#1C1B1F"/>
</svg>
