<?xml version="1.0" encoding="UTF-8"?><svg id="Layer_1" xmlns="http://www.w3.org/2000/svg" viewBox="0 0 20 20"><defs><style>.cls-1{fill:#1c1b1f;}</style></defs><path class="cls-1" d="m17.58,3.73c-.31-.31-.68-.47-1.12-.47H6.95c-.44,0-.81.16-1.12.47-.31.31-.47.68-.47,1.12v1.58h-1.58c-.44,0-.81.16-1.12.47s-.47.68-.47,1.12v7.13c0,.44.16.81.47,1.12.31.31.68.47,1.12.47h9.51c.44,0,.81-.16,1.12-.47.31-.31.47-.68.47-1.12v-1.58h1.58c.44,0,.81-.16,1.12-.47s.47-.68.47-1.12v-7.13c0-.44-.16-.81-.47-1.12Zm-4.29,11.42H3.78v-7.13h9.51v7.13Zm3.17-3.17h-1.58v-3.96c0-.44-.16-.81-.47-1.12-.31-.31-.68-.47-1.12-.47h-6.34v-1.58h9.51v7.13Z"/></svg>