<svg width="19" height="16" viewBox="0 0 19 16" fill="none" xmlns="http://www.w3.org/2000/svg">
<path d="M13.3014 14.2043V6.10435H2.50143V14.2043H13.3014ZM15.1014 12.4043V10.6043H16.9014V2.50435H6.10143V4.30435H4.30143V2.50435C4.30143 2.00935 4.47768 1.5856 4.83018 1.2331C5.18268 0.880596 5.60643 0.704346 6.10143 0.704346H16.9014C17.3964 0.704346 17.8202 0.880596 18.1727 1.2331C18.5252 1.5856 18.7014 2.00935 18.7014 2.50435V10.6043C18.7014 11.0993 18.5252 11.5231 18.1727 11.8756C17.8202 12.2281 17.3964 12.4043 16.9014 12.4043H15.1014ZM2.50143 16.0043C2.00643 16.0043 1.58268 15.8281 1.23018 15.4756C0.877681 15.1231 0.701431 14.6993 0.701431 14.2043V6.10435C0.701431 5.60935 0.877681 5.1856 1.23018 4.8331C1.58268 4.4806 2.00643 4.30435 2.50143 4.30435H13.3014C13.7964 4.30435 14.2202 4.4806 14.5727 4.8331C14.9252 5.1856 15.1014 5.60935 15.1014 6.10435V14.2043C15.1014 14.6993 14.9252 15.1231 14.5727 15.4756C14.2202 15.8281 13.7964 16.0043 13.3014 16.0043H2.50143Z" fill="#1C1B1F"/>
</svg>
