<?xml version="1.0" encoding="UTF-8"?><svg id="Layer_1" xmlns="http://www.w3.org/2000/svg" viewBox="0 0 20 20"><defs><style>.cls-1{fill:#211f27;}</style></defs><path class="cls-1" d="m16.63,17.85l-5.49-5.49c-.44.35-.94.62-1.5.83-.57.2-1.17.31-1.81.31-1.58,0-2.92-.55-4.02-1.65-1.1-1.1-1.65-2.44-1.65-4.02s.55-2.92,1.65-4.02c1.1-1.1,2.44-1.65,4.02-1.65s2.92.55,4.02,1.65c1.1,1.1,1.65,2.44,1.65,4.02,0,.64-.1,1.24-.31,1.81-.2.57-.48,1.07-.83,1.5l5.49,5.49-1.22,1.22Zm-8.81-6.1c1.09,0,2.02-.38,2.78-1.14.76-.76,1.14-1.69,1.14-2.78s-.38-2.02-1.14-2.78c-.76-.76-1.69-1.14-2.78-1.14s-2.02.38-2.78,1.14c-.76.76-1.14,1.69-1.14,2.78s.38,2.02,1.14,2.78c.76.76,1.69,1.14,2.78,1.14Z"/></svg>