<svg width="15" height="16" viewBox="0 0 15 16" fill="none" xmlns="http://www.w3.org/2000/svg">
<mask id="mask0_1388_919" style="mask-type:alpha" maskUnits="userSpaceOnUse" x="0" y="0" width="15" height="16">
<rect y="0.5" width="15" height="15" fill="#D9D9D9"/>
</mask>
<g mask="url(#mask0_1388_919)">
<path d="M12.25 13.625L8.3125 9.6875C8 9.9375 7.64062 10.1354 7.23438 10.2813C6.82812 10.4271 6.39583 10.5 5.9375 10.5C4.80208 10.5 3.84115 10.1068 3.05469 9.32031C2.26823 8.53385 1.875 7.57292 1.875 6.4375C1.875 5.30208 2.26823 4.34115 3.05469 3.55469C3.84115 2.76823 4.80208 2.375 5.9375 2.375C7.07292 2.375 8.03385 2.76823 8.82031 3.55469C9.60677 4.34115 10 5.30208 10 6.4375C10 6.89583 9.92708 7.32812 9.78125 7.73438C9.63542 8.14062 9.4375 8.5 9.1875 8.8125L13.125 12.75L12.25 13.625ZM5.9375 9.25C6.71875 9.25 7.38281 8.97656 7.92969 8.42969C8.47656 7.88281 8.75 7.21875 8.75 6.4375C8.75 5.65625 8.47656 4.99219 7.92969 4.44531C7.38281 3.89844 6.71875 3.625 5.9375 3.625C5.15625 3.625 4.49219 3.89844 3.94531 4.44531C3.39844 4.99219 3.125 5.65625 3.125 6.4375C3.125 7.21875 3.39844 7.88281 3.94531 8.42969C4.49219 8.97656 5.15625 9.25 5.9375 9.25Z" fill="#B5B5B5"/>
</g>
</svg>
