<?xml version="1.0" encoding="UTF-8"?><svg id="Layer_1" xmlns="http://www.w3.org/2000/svg" viewBox="0 0 20 20"><defs><style>.cls-1{fill:#211f27;}</style></defs><path class="cls-1" d="m13.25,10c0,1.79-1.45,3.25-3.25,3.25s-3.25-1.45-3.25-3.25,1.45-3.25,3.25-3.25,3.25,1.45,3.25,3.25Zm-1.78,0c0-.81-.66-1.47-1.47-1.47s-1.47.66-1.47,1.47.66,1.47,1.47,1.47,1.47-.66,1.47-1.47Z"/><path class="cls-1" d="m18.87,10.49c.17-.3.17-.67,0-.97l-4.01-6.95c-.17-.3-.49-.49-.84-.49H5.99c-.35,0-.67.19-.84.49L1.13,9.51c-.17.3-.17.67,0,.97l4.01,6.95c.17.3.49.49.84.49h8.03c.35,0,.67-.18.84-.49l4.01-6.95ZM6.43,3.82h7.13l3.57,6.18-3.57,6.18h-7.13l-3.57-6.18,3.57-6.18Z"/></svg>