<svg width="19" height="17" viewBox="0 0 19 17" fill="none" xmlns="http://www.w3.org/2000/svg">
<path fill-rule="evenodd" clip-rule="evenodd" d="M5.9823 2.36541L2.36233 8.63538L5.9823 14.9053H13.2222L16.8422 8.63538L13.2222 2.36541L5.9823 2.36541ZM16.9276 8.78333C16.9277 8.78348 16.9275 8.78319 16.9276 8.78333ZM5.81145 0.651123C5.30471 0.651123 4.83647 0.921463 4.5831 1.36031L0.79229 7.92619C0.538923 8.36504 0.538922 8.90572 0.79229 9.34456L4.5831 15.9104C4.83647 16.3493 5.30471 16.6196 5.81145 16.6196H13.3931C13.8998 16.6196 14.3681 16.3493 14.6214 15.9104L18.4122 9.34456C18.6656 8.90572 18.6656 8.36504 18.4122 7.92619L14.6214 1.36031C14.3681 0.921463 13.8998 0.651123 13.3931 0.651123H5.81145Z" fill="#211F27"/>
<path fill-rule="evenodd" clip-rule="evenodd" d="M9.60196 10.4677C10.6136 10.4677 11.4336 9.64761 11.4336 8.63602C11.4336 7.62443 10.6136 6.80437 9.60196 6.80437C8.59037 6.80437 7.77032 7.62443 7.77032 8.63602C7.77032 9.64761 8.59037 10.4677 9.60196 10.4677ZM9.60196 12.182C11.5603 12.182 13.1479 10.5944 13.1479 8.63602C13.1479 6.67766 11.5603 5.09009 9.60196 5.09009C7.6436 5.09009 6.05603 6.67766 6.05603 8.63602C6.05603 10.5944 7.6436 12.182 9.60196 12.182Z" fill="#211F27"/>
</svg>
