<svg width="25" height="25" viewBox="0 0 25 25" fill="none" xmlns="http://www.w3.org/2000/svg">
<mask id="mask0_1471_313" style="mask-type:alpha" maskUnits="userSpaceOnUse" x="0" y="0" width="25" height="25">
<rect x="0.612549" y="24.2974" width="24" height="24" transform="rotate(-90 0.612549 24.2974)" fill="#D9D9D9"/>
</mask>
<g mask="url(#mask0_1471_313)">
<path d="M7.62289 4.30981C7.73985 4.10722 7.95601 3.98242 8.18993 3.98242L17.0352 3.98242C17.2691 3.98242 17.4852 4.10722 17.6022 4.30981L18.4682 3.80981L17.6022 4.30981L22.0248 11.97L22.8909 11.47L22.0248 11.97C22.1418 12.1726 22.1418 12.4222 22.0248 12.6248L17.6022 20.285C17.4852 20.4876 17.2691 20.6123 17.0352 20.6123H8.18993C7.95601 20.6123 7.73985 20.4876 7.62289 20.285L3.20027 12.6248C3.08331 12.4222 3.08331 12.1726 3.20027 11.97L7.62289 4.30981Z" stroke="#211F27" stroke-width="2"/>
<path d="M15.7491 12.2979C15.7491 14.0304 14.3447 15.4349 12.6122 15.4349C10.8797 15.4349 9.47528 14.0304 9.47528 12.2979C9.47528 10.5655 10.8797 9.16101 12.6122 9.16101C14.3447 9.16101 15.7491 10.5655 15.7491 12.2979Z" stroke="#211F27" stroke-width="2"/>
</g>
</svg>
