<svg width="19" height="16" viewBox="0 0 19 16" fill="none" xmlns="http://www.w3.org/2000/svg">
<path d="M12.3494 8.05374C12.3494 9.84707 10.8956 11.3008 9.10226 11.3008C7.30894 11.3008 5.85516 9.84707 5.85516 8.05374C5.85516 6.26042 7.30894 4.80664 9.10226 4.80664C10.8956 4.80664 12.3494 6.26042 12.3494 8.05374ZM10.571 8.05374C10.571 7.24258 9.91343 6.585 9.10226 6.585C8.2911 6.585 7.63352 7.24258 7.63352 8.05374C7.63352 8.86491 8.2911 9.52249 9.10226 9.52249C9.91343 9.52249 10.571 8.86491 10.571 8.05374Z" fill="#211F27"/>
<path d="M17.9722 8.53915C18.1456 8.23875 18.1456 7.86865 17.9722 7.56825L13.9576 0.614849C13.7842 0.314449 13.4637 0.129395 13.1168 0.129395H5.08772C4.74085 0.129395 4.42032 0.314449 4.24689 0.614849L0.232341 7.56825C0.0589054 7.86865 0.0589054 8.23875 0.232341 8.53916L4.24689 15.4926C4.42032 15.793 4.74085 15.978 5.08772 15.978H13.1168C13.4637 15.978 13.7842 15.793 13.9576 15.4926L17.9722 8.53915ZM5.53616 1.87703H12.6684L16.2345 8.0537L12.6684 14.2304H5.53616L1.97006 8.0537L5.53616 1.87703Z" fill="#211F27"/>
</svg> 