<?xml version="1.0" encoding="UTF-8"?><svg id="Layer_1" xmlns="http://www.w3.org/2000/svg" viewBox="0 0 20 20"><defs><style>.cls-1{fill-rule:evenodd;}</style></defs><path class="cls-1" d="m10.58,5.85c0,1.06-.86,1.92-1.92,1.92s-1.92-.86-1.92-1.92.86-1.92,1.92-1.92,1.92.86,1.92,1.92Zm-1.04,3.39c1.51-.39,2.62-1.76,2.62-3.39,0-1.93-1.57-3.5-3.5-3.5s-3.5,1.57-3.5,3.5c0,1.7,1.2,3.11,2.8,3.43v7.79c0,.44.35.79.79.79s.79-.35.79-.79v-3.52h2.62c1.78,0,3.23-1.45,3.23-3.23v-.32c.72-.31,1.23-1.02,1.23-1.86,0-1.11-.9-2.02-2.02-2.02s-2.02.9-2.02,2.02c0,.83.51,1.55,1.23,1.86v.32c0,.91-.74,1.65-1.65,1.65h-2.62v-2.74Z"/></svg>