<svg width="25" height="25" viewBox="0 0 25 25" fill="none" xmlns="http://www.w3.org/2000/svg">
<mask id="mask0_1516_232" style="mask-type:alpha" maskUnits="userSpaceOnUse" x="0" y="0" width="25" height="25">
<rect x="0.408203" y="24.3746" width="24" height="24" transform="rotate(-90 0.408203 24.3746)" fill="#D9D9D9"/>
</mask>
<g mask="url(#mask0_1516_232)">
<path fill-rule="evenodd" clip-rule="evenodd" d="M11.6597 7.46325C11.6597 8.45324 10.8571 9.25579 9.86712 9.25579C8.87712 9.25579 8.07457 8.45324 8.07457 7.46325C8.07457 6.47325 8.87712 5.6707 9.86712 5.6707C10.8571 5.6707 11.6597 6.47325 11.6597 7.46325ZM11.0723 11.2707C12.6883 10.7596 13.8597 9.24822 13.8597 7.46325C13.8597 5.25823 12.0721 3.4707 9.86712 3.4707C7.6621 3.4707 5.87457 5.25823 5.87457 7.46325C5.87457 9.32482 7.14863 10.8888 8.87234 11.3309V20.2632C8.87234 20.8707 9.36483 21.3632 9.97234 21.3632C10.5799 21.3632 11.0723 20.8707 11.0723 20.2632V16.4542H13.8605C16.0036 16.4542 17.7409 14.7169 17.7409 12.5738V12.1098C18.4564 11.7196 18.9418 10.9606 18.9418 10.0882C18.9418 8.81731 17.9115 7.78702 16.6406 7.78702C15.3697 7.78702 14.3394 8.81731 14.3394 10.0882C14.3394 10.9609 14.8251 11.72 15.5409 12.1102V12.5738C15.5409 13.5019 14.7886 14.2542 13.8605 14.2542H11.0723V11.2707Z" fill="#B5B5B5"/>
</g>
</svg>
