<svg width="25" height="25" viewBox="0 0 25 25" fill="none" xmlns="http://www.w3.org/2000/svg">
<mask id="mask0_1471_306" style="mask-type:alpha" maskUnits="userSpaceOnUse" x="0" y="0" width="25" height="25">
<rect x="0.0997314" y="24.2974" width="24" height="24" transform="rotate(-90 0.0997314 24.2974)" fill="#D9D9D9"/>
</mask>
<g mask="url(#mask0_1471_306)">
<path fill-rule="evenodd" clip-rule="evenodd" d="M4.38409 12.335C4.38409 8.07377 7.83848 4.61938 12.0997 4.61938C16.3609 4.61938 19.8153 8.07377 19.8153 12.335C19.8153 15.9947 17.2663 19.0615 13.8458 19.8524C13.3077 19.9768 12.9724 20.5139 13.0968 21.052C13.2212 21.59 13.7583 21.9254 14.2964 21.801C18.6038 20.805 21.8153 16.9462 21.8153 12.335C21.8153 6.96921 17.4655 2.61938 12.0997 2.61938C6.73391 2.61938 2.38409 6.96921 2.38409 12.335C2.38409 17.2667 6.05771 21.3388 10.8182 21.9667C11.1037 22.0044 11.3916 21.9171 11.6082 21.7272C11.8248 21.5373 11.9489 21.2633 11.9489 20.9753V17.9343H13.9108C15.859 17.9343 17.4384 16.3549 17.4384 14.4066V14.2083C17.9752 13.8739 18.3325 13.2783 18.3325 12.5993C18.3325 11.5531 17.4844 10.705 16.4382 10.705C15.392 10.705 14.5439 11.5531 14.5439 12.5993C14.5439 13.2785 14.9014 13.8742 15.4384 14.2086V14.4066C15.4384 15.2503 14.7545 15.9343 13.9108 15.9343H11.9489V13.5413C13.2301 13.0926 14.149 11.8729 14.149 10.4385C14.149 8.62335 12.6775 7.15188 10.8624 7.15188C9.04722 7.15188 7.57575 8.62335 7.57575 10.4385C7.57575 11.9367 8.5782 13.2007 9.94893 13.5965V19.7471C6.73455 18.8162 4.38409 15.8494 4.38409 12.335ZM12.149 10.4385C12.149 11.1491 11.5729 11.7251 10.8624 11.7251C10.1518 11.7251 9.57575 11.1491 9.57575 10.4385C9.57575 9.72792 10.1518 9.15188 10.8624 9.15188C11.5729 9.15188 12.149 9.72792 12.149 10.4385Z" fill="black"/>
</g>
</svg>
