<svg width="14" height="19" viewBox="0 0 14 19" fill="none" xmlns="http://www.w3.org/2000/svg">
<path fill-rule="evenodd" clip-rule="evenodd" d="M6.6534 4.52871C6.6534 5.76066 5.65471 6.75936 4.42276 6.75936C3.19081 6.75936 2.19212 5.76066 2.19212 4.52871C2.19212 3.29677 3.19081 2.29807 4.42276 2.29807C5.65471 2.29807 6.6534 3.29677 6.6534 4.52871ZM5.44545 8.4608C7.19372 8.00738 8.48468 6.41881 8.48468 4.52871C8.48468 2.28538 6.66609 0.466797 4.42276 0.466797C2.17942 0.466797 0.36084 2.28538 0.36084 4.52871C0.36084 6.49518 1.75823 8.13526 3.61417 8.51015V17.5512C3.61417 18.0569 4.02412 18.4668 4.52981 18.4668C5.0355 18.4668 5.44545 18.0569 5.44545 17.5512V13.4724H8.48554C10.5535 13.4724 12.2299 11.796 12.2299 9.72806V9.35462C13.0677 8.9981 13.6551 8.16735 13.6551 7.19939C13.6551 5.90639 12.6069 4.8582 11.3139 4.8582C10.0209 4.8582 8.97274 5.90639 8.97274 7.19939C8.97274 8.1676 9.56047 8.99854 10.3986 9.3549V9.72806C10.3986 10.7846 9.5421 11.6411 8.48554 11.6411H5.44545V8.4608Z" fill="black"/>
</svg>
