<svg width="20" height="20" viewBox="0 0 20 20" fill="none" xmlns="http://www.w3.org/2000/svg">
<path fill-rule="evenodd" clip-rule="evenodd" d="M1.93348 10.2725C1.93348 6.00792 5.39058 2.55082 9.65512 2.55082C13.9197 2.55082 17.3768 6.00792 17.3768 10.2725C17.3768 13.9352 14.8257 17.0042 11.4025 17.7958C10.9241 17.9064 10.6259 18.3839 10.7365 18.8624C10.8472 19.3409 11.3247 19.639 11.8032 19.5284C16.0149 18.5545 19.1551 14.7813 19.1551 10.2725C19.1551 5.02576 14.9018 0.772461 9.65512 0.772461C4.40842 0.772461 0.155121 5.02576 0.155121 10.2725C0.155121 15.0947 3.74719 19.0765 8.40192 19.6904C8.65582 19.7239 8.91183 19.6463 9.10439 19.4775C9.29696 19.3087 9.40738 19.065 9.40738 18.8089V15.7056H11.4444C13.3147 15.7056 14.8308 14.1894 14.8308 12.3191V12.1807C15.4157 11.8643 15.813 11.2453 15.813 10.5336C15.813 9.49998 14.9751 8.66206 13.9415 8.66206C12.9079 8.66206 12.0699 9.49998 12.0699 10.5336C12.0699 11.2455 12.4674 11.8645 13.0525 12.181V12.3191C13.0525 13.2073 12.3325 13.9272 11.4444 13.9272H9.40738V11.4969C10.7245 11.083 11.6798 9.85237 11.6798 8.39865C11.6798 6.60533 10.226 5.15155 8.43266 5.15155C6.63933 5.15155 5.18556 6.60533 5.18556 8.39865C5.18556 9.9146 6.2244 11.1879 7.62902 11.5455V17.7258C4.34753 16.836 1.93348 13.8356 1.93348 10.2725ZM9.9014 8.39865C9.9014 9.20982 9.24382 9.8674 8.43266 9.8674C7.6215 9.8674 6.96392 9.20982 6.96392 8.39865C6.96392 7.58749 7.6215 6.92991 8.43266 6.92991C9.24382 6.92991 9.9014 7.58749 9.9014 8.39865Z" fill="black"/>
</svg>
