<?xml version="1.0" encoding="UTF-8"?><svg id="Layer_1" xmlns="http://www.w3.org/2000/svg" viewBox="0 0 20 20"><defs><style>.cls-1{fill:#1c1b1f;}</style></defs><path class="cls-1" d="m5,17.52c-1.38,0-2.56-.48-3.53-1.43-.98-.95-1.47-2.12-1.47-3.5,0-1.18.36-2.23,1.07-3.16.71-.92,1.64-1.52,2.8-1.77.38-1.39,1.14-2.52,2.27-3.39,1.14-.86,2.42-1.3,3.86-1.3,1.77,0,3.28.62,4.51,1.85,1.23,1.23,1.85,2.74,1.85,4.51,1.05.12,1.91.57,2.6,1.35.69.78,1.03,1.69,1.03,2.74,0,1.14-.4,2.1-1.19,2.9-.8.8-1.76,1.19-2.9,1.19h-5c-.5,0-.93-.18-1.28-.53-.36-.36-.53-.78-.53-1.28v-4.68l-.81.79c-.36.34-.92.34-1.27-.01-.35-.35-.35-.93,0-1.28l2.25-2.25c.41-.41,1.08-.41,1.49,0l2.25,2.25c.35.35.35.93,0,1.28-.35.35-.92.35-1.27.01l-.81-.79v4.68h5c.64,0,1.17-.22,1.61-.66.44-.44.66-.98.66-1.61s-.22-1.17-.66-1.61c-.44-.44-.98-.66-1.61-.66h-1.36v-1.82c0-1.26-.44-2.33-1.33-3.22-.89-.89-1.96-1.33-3.22-1.33s-2.33.44-3.22,1.33-1.33,1.96-1.33,3.22h-.45c-.88,0-1.63.31-2.25.93-.62.62-.93,1.37-.93,2.25s.31,1.63.93,2.25c.62.62,1.37.93,2.25.93h1.36c.5,0,.91.41.91.91s-.41.91-.91.91h-1.36Z"/></svg>