<?xml version="1.0" encoding="UTF-8"?><svg id="Layer_1" xmlns="http://www.w3.org/2000/svg" viewBox="0 0 20 20"><defs><style>.cls-1{fill-rule:evenodd;}</style></defs><path class="cls-1" d="m10.85,3.8c-1.54-.21-3.11.16-4.4,1.04-1.28.88-2.19,2.21-2.55,3.73-.36,1.52-.13,3.11.62,4.48.76,1.36,2,2.39,3.47,2.89,1.48.5,3.09.43,4.51-.2,1.04-.46,1.93-1.18,2.58-2.1h-5.03c-.43,0-.78-.35-.78-.78s.35-.78.78-.78h6.34c.12,0,.24.03.34.08,0,0,0,0,0,0,.39.18.57.64.4,1.03-.79,1.78-2.22,3.2-4.01,3.98-1.78.78-3.8.87-5.64.25-1.85-.62-3.39-1.91-4.34-3.61-.95-1.7-1.22-3.7-.78-5.59.45-1.9,1.58-3.56,3.19-4.66,1.61-1.1,3.57-1.57,5.5-1.3,1.93.27,3.69,1.24,4.94,2.74,1.25,1.5,1.9,3.4,1.81,5.35-.02.43-.38.77-.82.75-.43-.02-.77-.38-.75-.82.07-1.56-.45-3.08-1.45-4.28-1-1.2-2.41-1.98-3.95-2.19Zm-1,6.05l-2.11,2.11c-.31.31-.8.31-1.11,0-.31-.31-.31-.8,0-1.11l1.56-1.56-1.56-1.56c-.31-.31-.31-.8,0-1.11.31-.31.8-.31,1.11,0l2.11,2.11c.31.31.31.8,0,1.11Z"/></svg>