<?xml version="1.0" encoding="UTF-8"?><svg id="Layer_1" xmlns="http://www.w3.org/2000/svg" viewBox="0 0 20 20"><defs><style>.cls-1{fill:#1c1b1f;}</style></defs><path class="cls-1" d="m11.62,13.24h1.62v-1.62h1.62v-1.62h-1.62v-1.62h-1.62v1.62h-1.62v1.62h1.62v1.62Zm-8.1,3.24c-.45,0-.83-.16-1.14-.48-.32-.32-.48-.7-.48-1.14V5.14c0-.45.16-.83.48-1.14.32-.32.7-.48,1.14-.48h4.86l1.62,1.62h6.48c.45,0,.83.16,1.14.48s.48.7.48,1.14v8.1c0,.45-.16.83-.48,1.14s-.7.48-1.14.48H3.52Zm0-1.62h12.96V6.76h-7.15l-1.62-1.62H3.52v9.72Z"/></svg>