<?xml version="1.0" encoding="UTF-8"?><svg id="Layer_1" xmlns="http://www.w3.org/2000/svg" viewBox="0 0 20 20"><defs><style>.cls-1{fill:#211f27;stroke:#211f27;stroke-width:.03px;}</style></defs><path class="cls-1" d="m9.99,5.24h0s.01,0,.01,0h6.36c.43,0,.81.15,1.12.46.31.31.46.68.46,1.12v7.95c0,.43-.15.81-.46,1.12s-.68.46-1.12.46H3.64c-.43,0-.81-.15-1.12-.46-.31-.31-.46-.68-.46-1.12V5.23c0-.43.15-.81.46-1.12.31-.31.68-.46,1.12-.46h4.77l1.59,1.59ZM3.63,14.77h0s.01.01.01.01h12.73v-7.96h0s-.01-.01-.01-.01h-7.01l-1.59-1.59h0s-.01,0-.01,0H3.63v9.55Z"/></svg>