<?xml version="1.0" encoding="UTF-8"?><svg id="Layer_1" xmlns="http://www.w3.org/2000/svg" viewBox="0 0 20 20"><defs><style>.cls-1{fill:#211f27;}</style></defs><path class="cls-1" d="m9.96,14.71c.27,0,.51-.09.7-.28.19-.19.28-.42.28-.7s-.09-.51-.28-.7c-.19-.19-.42-.28-.7-.28s-.51.09-.7.28c-.19.19-.28.42-.28.7s.09.51.28.7c.19.19.42.28.7.28Zm-.71-3.02h1.45c0-.43.05-.77.15-1.02.1-.25.38-.59.83-1.02.34-.34.61-.66.8-.97.2-.31.29-.68.29-1.11,0-.73-.27-1.29-.8-1.69-.54-.39-1.17-.59-1.9-.59s-1.35.2-1.81.59c-.46.39-.79.86-.97,1.41l1.29.51c.07-.24.21-.49.44-.77.23-.27.58-.41,1.05-.41.42,0,.73.11.94.34.21.23.31.48.31.76s-.08.51-.24.74c-.16.23-.35.44-.59.64-.58.51-.93.9-1.06,1.16-.13.26-.2.74-.2,1.43Zm.75,6.16c-1.09,0-2.11-.21-3.06-.62-.95-.41-1.79-.97-2.49-1.68-.71-.71-1.27-1.54-1.68-2.49-.41-.95-.62-1.97-.62-3.06s.21-2.11.62-3.06c.41-.95.97-1.79,1.68-2.49.71-.71,1.54-1.27,2.49-1.68.95-.41,1.97-.62,3.06-.62s2.11.21,3.06.62c.95.41,1.79.97,2.49,1.68s1.27,1.54,1.68,2.49c.41.95.62,1.97.62,3.06s-.21,2.11-.62,3.06c-.41.95-.97,1.79-1.68,2.49s-1.54,1.27-2.49,1.68c-.95.41-1.97.62-3.06.62Zm0-1.57c1.75,0,3.24-.61,4.45-1.82s1.82-2.7,1.82-4.45-.61-3.24-1.82-4.45c-1.22-1.22-2.7-1.82-4.45-1.82s-3.24.61-4.45,1.82c-1.22,1.22-1.82,2.7-1.82,4.45s.61,3.24,1.82,4.45c1.22,1.22,2.7,1.82,4.45,1.82Z"/></svg>