<?xml version="1.0" encoding="UTF-8"?><svg id="Layer_1" xmlns="http://www.w3.org/2000/svg" viewBox="0 0 20 20"><defs><style>.cls-1{fill:#211f27;}</style></defs><path class="cls-1" d="m5.56,11.48c-.41,0-.76-.14-1.04-.43-.29-.29-.43-.64-.43-1.04s.14-.76.43-1.04c.29-.29.64-.43,1.04-.43s.76.14,1.04.43c.29.29.43.64.43,1.04s-.14.76-.43,1.04c-.29.29-.64.43-1.04.43Zm4.44,0c-.41,0-.76-.14-1.04-.43-.29-.29-.43-.64-.43-1.04s.14-.76.43-1.04c.29-.29.64-.43,1.04-.43s.76.14,1.04.43c.29.29.43.64.43,1.04s-.14.76-.43,1.04c-.29.29-.64.43-1.04.43Zm4.44,0c-.41,0-.76-.14-1.04-.43s-.43-.64-.43-1.04.14-.76.43-1.04c.29-.29.64-.43,1.04-.43s.76.14,1.04.43c.29.29.43.64.43,1.04s-.14.76-.43,1.04c-.29.29-.64.43-1.04.43Z"/></svg>