<?xml version="1.0" encoding="UTF-8"?><svg id="Layer_1" xmlns="http://www.w3.org/2000/svg" viewBox="0 0 20 20"><defs><style>.cls-1{fill:#1c1b1f;}</style></defs><path class="cls-1" d="m2.48,8.59c0-1.25.28-2.4.84-3.45.56-1.05,1.31-1.91,2.25-2.6l.88,1.2c-.75.55-1.35,1.25-1.8,2.09-.44.84-.67,1.76-.67,2.76h-1.5Zm13.53,0c0-1-.22-1.92-.67-2.76-.44-.84-1.04-1.54-1.8-2.09l.88-1.2c.94.69,1.69,1.56,2.25,2.6.56,1.05.84,2.2.84,3.45h-1.5ZM3.98,15.36v-1.5h1.5v-5.26c0-1.04.31-1.96.94-2.77.63-.81,1.44-1.34,2.44-1.59v-.53c0-.31.11-.58.33-.8.22-.22.49-.33.8-.33s.58.11.8.33c.22.22.33.49.33.8v.53c1,.25,1.82.78,2.44,1.59.63.81.94,1.73.94,2.77v5.26h1.5v1.5H3.98Zm6.02,2.26c-.41,0-.77-.15-1.06-.44-.29-.29-.44-.65-.44-1.06h3.01c0,.41-.15.77-.44,1.06s-.65.44-1.06.44Zm-3.01-3.76h6.02v-5.26c0-.83-.29-1.54-.88-2.12-.59-.59-1.3-.88-2.12-.88s-1.54.29-2.12.88c-.59.59-.88,1.3-.88,2.12v5.26Z"/></svg>