<?xml version="1.0" encoding="UTF-8"?><svg id="Layer_1" xmlns="http://www.w3.org/2000/svg" viewBox="0 0 20 20"><defs><style>.cls-1{fill:#211f27;}</style></defs><path class="cls-1" d="m9.57,5.17c.31-.1.63-.15.97-.15.85,0,1.58.3,2.18.91.61.61.91,1.33.91,2.18v2.44l1.55,1.55v-3.98c0-1.07-.32-2.02-.97-2.85-.64-.83-1.48-1.38-2.51-1.63v-.54c0-.32-.11-.6-.34-.82-.23-.23-.5-.34-.82-.34s-.6.11-.82.34-.34.5-.34.82v.54c-.33.08-.65.19-.95.35-.3.15-.57.34-.83.54l1.12,1.12c.26-.21.54-.36.85-.46Z"/><path class="cls-1" d="m7.4,6.51l-.84-.84h0s-3.13-3.13-3.13-3.13l-1.08,1.08,3.64,3.64c-.05.28-.08.56-.08.84v5.41h-1.55v1.55h9.39l2.82,2.78,1.08-1.08L7.4,6.51Zm.05,7.01v-4.79l4.79,4.79h-4.79Z"/><path class="cls-1" d="m9.45,16.93c.3.3.67.45,1.09.45s.79-.15,1.09-.45.45-.67.45-1.09h-3.09c0,.43.15.79.45,1.09Z"/></svg>