<?xml version="1.0" encoding="UTF-8"?><svg id="Layer_1" xmlns="http://www.w3.org/2000/svg" viewBox="0 0 20 20"><defs><style>.cls-1{fill:#211f27;}</style></defs><path class="cls-1" d="m9.96,17.61c-.43,0-.79-.15-1.09-.45-.3-.3-.45-.67-.45-1.09h3.09c0,.43-.15.79-.45,1.09-.3.3-.67.45-1.09.45Zm-6.18-2.32v-1.55h1.55v-5.41c0-1.07.32-2.02.97-2.85.64-.83,1.48-1.38,2.51-1.63v-.54c0-.32.11-.6.34-.82.23-.23.5-.34.82-.34s.6.11.82.34c.23.23.34.5.34.82v.25c-.14.28-.24.57-.31.87-.06.3-.09.6-.08.91-.13-.03-.25-.05-.38-.07-.12-.02-.25-.03-.4-.03-.85,0-1.58.3-2.18.91-.61.61-.91,1.33-.91,2.18v5.41h6.18v-4.97c.23.1.48.18.74.24s.53.09.8.09v4.64h1.55v1.55H3.78Zm10.82-7.73c-.64,0-1.19-.23-1.64-.68-.45-.45-.68-1-.68-1.64s.23-1.19.68-1.64c.45-.45,1-.68,1.64-.68s1.19.23,1.64.68c.45.45.68,1,.68,1.64s-.23,1.19-.68,1.64-1,.68-1.64.68Z"/></svg>