<?xml version="1.0" encoding="UTF-8"?><svg id="Layer_1" xmlns="http://www.w3.org/2000/svg" viewBox="0 0 20 20"><defs><style>.cls-1{fill:#211f27;fill-rule:evenodd;}</style></defs><path class="cls-1" d="m6.77,4.41h6.46l3.23,5.59-3.23,5.59h-6.46l-3.23-5.59,3.23-5.59Zm11.26,6.03c.16-.27.16-.61,0-.88l-3.63-6.3c-.16-.27-.45-.44-.76-.44h-7.27c-.31,0-.6.17-.76.44l-3.64,6.3c-.16.27-.16.61,0,.88l3.64,6.3c.16.27.45.44.76.44h7.27c.31,0,.6-.17.76-.44l3.63-6.3Zm-6.7-.44c0,.73-.6,1.33-1.33,1.33s-1.33-.6-1.33-1.33.6-1.33,1.33-1.33,1.33.6,1.33,1.33Zm1.61,0c0,1.62-1.32,2.94-2.94,2.94s-2.94-1.32-2.94-2.94,1.32-2.94,2.94-2.94,2.94,1.32,2.94,2.94Z"/></svg>