<?xml version="1.0" encoding="UTF-8"?><svg id="Layer_1" xmlns="http://www.w3.org/2000/svg" viewBox="0 0 20 20"><defs><style>.cls-1{fill:#211f27;fill-rule:evenodd;}</style></defs><path class="cls-1" d="m10.21,1.82C5.68,1.82,2,5.5,2,10.03c0,4.17,3.11,7.61,7.13,8.14.22.03.44-.04.61-.18.17-.15.26-.36.26-.58v-2.68h1.76c1.62,0,2.93-1.31,2.93-2.93v-.12c.51-.27.85-.81.85-1.42,0-.89-.72-1.62-1.62-1.62s-1.62.72-1.62,1.62c0,.62.34,1.15.85,1.42v.12c0,.77-.62,1.39-1.39,1.39h-1.76v-2.1c.05-.02.1-.04.15-.06.06-.02.11-.04.16-.07.11-.05.21-.11.32-.17.04-.02.08-.05.12-.07.14-.09.26-.2.38-.31.02-.02.04-.04.06-.07.09-.1.18-.2.26-.32.03-.05.06-.09.09-.14.06-.1.11-.19.16-.3.03-.05.05-.11.07-.16.04-.11.08-.22.1-.33.01-.05.03-.1.04-.16.03-.17.05-.34.05-.52h0c0-1.55-1.26-2.81-2.81-2.81-.78,0-1.48.31-1.98.82-.02.02-.04.05-.06.07-.47.5-.76,1.17-.76,1.91h0s0,0,0,0c0,.18.02.36.05.53.01.06.03.11.04.16.03.11.06.22.1.33.02.06.05.12.08.17.05.1.1.19.15.28.03.05.07.11.11.16.06.09.13.17.21.25.04.04.08.09.12.13.09.09.19.17.29.24.03.02.06.05.1.07.14.09.29.17.44.24.04.02.08.03.12.04.1.04.19.08.29.1v5.34c-2.84-.77-4.92-3.36-4.92-6.44,0-3.69,2.99-6.68,6.68-6.68s6.68,2.99,6.68,6.68c0,3.17-2.21,5.82-5.16,6.5-.41.1-.67.51-.58.92.1.41.51.67.92.58,3.64-.84,6.36-4.1,6.36-8,0-4.54-3.68-8.21-8.21-8.21Zm-2.33,6.59c0-.35.14-.67.37-.9s.55-.37.9-.37c.7,0,1.27.57,1.27,1.27,0,.35-.14.67-.37.9s-.55.37-.9.37c-.7,0-1.27-.57-1.27-1.27Z"/></svg>